<svg xmlns="http://www.w3.org/2000/svg" width="180" height="78" viewBox="0 0 180 78">
  <g>
    <rect width="180" height="78" x="0" y="0" fill="rgb(255,255,255)" rx="0" ry="0"/>
    <path fill="rgb(38,50,56)" fill-rule="evenodd" d="M165 70.03919412c0 .02281498-33.5809818.03954597-74.99550184.03954597C48.5899781 70.07874009 15 70.0620091 15 70.03919412s33.57423456-.03954596 75.00449816-.03954596c41.43026359 0 74.99550184.01825198 74.99550184.03954596z"/>
    <g>
      <path fill="rgb(235,235,235)" fill-rule="evenodd" d="M160.24847812 45.4765499c-1.4424086 3.35684387-1.94920082 5.27178108-1.94920082 5.27178108s-.39133955.70878534-.88013915.29051073c-.48879959-.4182746-1.1995082-1.64419946-1.96869283-1.36889872-.80067173.28442673-1.01358443 1.21679886-.77818095 2.5689666.23540349 1.35216774.64473566 4.31355199.6807209 4.58124774.03598525.26769575-.0899631.66315538-.4678082.4319636-.37784508-.2311918-2.60443218-2.46097571-3.58503013-1.32478977-.98059796 1.13618594.2848832 4.77289355.41532971 5.17139518.13044652.39850163.0614748.57797946-.12294959.69053336-.18442438.11255389-.8636459-.70878534-1.52187603-1.31566378-.65823012-.60687843-1.52787357-1.19702588-2.03916394-.49280354-.51129037.70422234-.52328545 3.49069175 2.35103608 7.84531069l1.46190062 1.9286262 2.3990164-.28138473c5.08441539-.92020415 7.05760638-2.86251934 7.1970492-3.72340454.13944284-.8608852-.87564098-1.08903498-1.76327705-1.14835393-.88763607-.05931894-1.94920082.013689-1.99118361-.19925081-.04198279-.2129398.03148709-.38633364.4063334-.56885347s3.83542748-1.78261034 3.96137584-3.28687794c.12594836-1.5042676-2.9987705-1.58335952-3.4260953-1.69895541-.4273248-.1155959-.23090533-.48519855-.01949201-.6433824.21141332-.15818386 2.60743095-1.91797922 3.72597235-2.6784785 1.1185414-.7604993 1.6373287-1.56814955 1.28497316-2.35146382-.33886107-.76049929-1.70030288-.4213166-2.33604222-.48976154-.63573935-.06844494-.40483402-.84415421-.40483402-.84415421s1.00758689-1.70047642 2.3990164-5.08317727c1.38871713-3.37610732-.20816265-3.82963563-.2143941-3.83139086-.19018502-.08871225-1.48245869-.54896642-2.8143641 2.55071006z"/>
      <path fill="rgb(224,224,224)" fill-rule="evenodd" d="M152.84451375 66.86939496c.07328594-.01789784.14810078-.02859421.2234084-.03194097l.5997541-.05779794c.51428914-.05019296 1.22199898-.1216799 2.00167931-.2205448.77968034-.0988649 1.4843914-.2068558 1.99418239-.28898973l.5997541-.09582291c.07368525-.01455243.14838545-.02319813.2234084-.02585698-.07040384.02652453-.14323202.04588566-.21741086.05779795-.14094221.03194097-.3448586.07452893-.5997541.12167989-.5082916.0973439-1.21150328.2144608-1.99418238.3133257-.7826791.09886491-1.49188833.16122585-2.00767686.19620882-.25639488.01673099-.46630881.02889897-.6102498.03194097-.07084122.00615494-.14207148.00615494-.2129127 0z"/>
      <path fill="rgb(224,224,224)" fill-rule="evenodd" d="M151.93288752 69.25584174c1.02408012-2.4807487 2.46798812-5.8953905 4.07532911-9.661383 1.607341-3.76599249 3.0602453-7.17455031 4.0978199-9.649215l1.22649713-2.93096428.33436291-.79700325.08996312-.20685581c.0096594-.023453.02067402-.04630767.03298647-.06844494.01231245-.02213727 0 .02433598-.02548955.07148694l-.0809668.2098978-.32086844.80917125c-.27888566.69661735-.68971722 1.70199741-1.1995082 2.94161126-1.02408013 2.48074868-2.46948752 5.8953905-4.07532912 9.659862-1.6058416 3.76447149-3.06324407 7.17150831-4.10231805 9.644652"/>
      <path fill="rgb(224,224,224)" fill-rule="evenodd" d="M156.36956848 51.42669635c.03084316.05031482.05504014.10452007.07197049.16122585.04198279.1049489.09596066.25856976.163433.44869458.1319459.38177065.29987704.91259915.47530512 1.5042676.17542807.59166845.32386721 1.10576597.44231865 1.5133936l.13644405.45629957c.02200155.05496716.036139.11284427.0419828.17187284-.02932122-.05112531-.05343569-.10514573-.0719705-.16122585-.04198279-.1049489-.09746004-.25856976-.1619336-.45629958-.12744775-.38177064-.28938136-.91259915-.46480944-1.5057886l-.44981557-1.51035159-.13794345-.45629957c-.02062924-.05352823-.03570448-.10909114-.04498155-.16578885z"/>
      <path fill="rgb(224,224,224)" fill-rule="evenodd" d="M157.92443098 55.71134936c-.00749692-.02129398 1.04956968-.4228376 2.37802501-.89738916 1.32845534-.47455156 2.3990164-.84111222 2.3990164-.81981824 0 .02129398-1.04956967.4243586-2.37952439.89891016-1.32995472.47455156-2.39002009.83959122-2.39751702.81829724z"/>
      <path fill="rgb(224,224,224)" fill-rule="evenodd" d="M155.1985486 61.38163208c.0574895-.01383075.11634477-.02097478.17542807-.02129398l.48130267-.02737798c.40483401-.02585698.9656041-.06083994 1.58185144-.12320088.61624733-.06236095 1.17251926-.13536888 1.5758539-.19164583l.4768045-.06540294c.05761224-.01253734.11655411-.01764772.17542808-.01520998-.05493959.02251399-.11231664.03834142-.17092992.04715096-.1109545.02433597-.27288811.05627694-.47230635.09125991-.40183525.07300793-.95810718.15209986-1.57735329.2175028-.6192461.06540294-1.1800162.08821792-1.58784898.0973439h-.48130267c-.0591241.00406213-.11851447.00099875-.17692745-.00912598z"/>
      <path fill="rgb(224,224,224)" fill-rule="evenodd" d="M152.95246949 57.8194534c.03882774.03892518.0730452.08231355.1019582.12928487.06297418.08669692.14993852.2129398.25639487.36960266.2129127.3148467.50079468.7513733.81716497 1.23809285.31637028.48671954.5997541.92780913.79617356 1.25026083.10045882.16122585.17992623.29203173.2339041.38481264.03253293.04672692.05828512.09794927.07646865.15209986-.03963426-.03857916-.07438664-.08200718-.10345758-.12928488-.0614748-.08669692-.14993853-.2129398-.2548955-.37112365-.2129127-.31332571-.50229405-.7513733-.81716496-1.23657185-.3148709-.48519855-.5997541-.92780914-.79767295-1.25026084-.09895943-.16122585-.17992623-.29355272-.2339041-.38481264-.03222686-.04668443-.05748854-.09793607-.07496926-.15209986z"/>
      <path fill="rgb(224,224,224)" fill-rule="evenodd" d="M149.91921312 62.51477602c.04820286.0514192.09138656.10745037.12894713.16730984.08696435.12624289.19791886.28442674.32986476.47303056.2743875.40154363.64923381.95822911 1.05856599 1.57727553.40933217.61904643.77668156 1.1818159 1.03907398 1.59096452l.30737397.48824055c.04013617.0578961.0747767.1195182.10345759.18404082-.04924375-.05033371-.09297994-.1059195-.13044652-.16578884l-.32836537-.47303056c-.2743875-.40154363-.64923381-.9597501-1.05856599-1.57727553-.40933217-.61752543-.77818094-1.1818159-1.03907398-1.59096452l-.31187213-.48976154c-.03984608-.05728714-.07305159-.11904143-.09895943-.18404083z"/>
    </g>
    <g>
      <path fill="rgb(232,80,91)" fill-rule="evenodd" d="M146.65250247 63.40608119c-.29088073.4213166-.85464959.28138474-1.117042.02433598-.26239243-.25704876-.37334694-.62817242-.47380575-.98408609-.22940594-.81221324-.46181066-1.66397245-.29088074-2.48987468.04088745-.2506257.14934703-.48488521.31337152-.67684437.16870013-.19267674.42579997-.27961203.67472336-.22814978.2848832.07604993.46181066.35895566.5907578.62817241.37678386.79511347.57399305 1.66546924.57726332 2.54767263 0 .41066961-.04648095.84111221-.2743875 1.1787739"/>
      <path fill="rgb(38,50,56)" fill-rule="evenodd" d="M146.63151108 67.2618126c-.00621457-.0881053-.00621457-.17654847 0-.26465376.0104957-.17035184.03298648-.4167536.0809668-.71943233.13094642-.78428963.35289847-1.55011088.6612289-2.28149787.30019256-.73944607.72995871-1.41760785 1.26847992-2.00163414.09403364-.10009115.1941911-.19407227.29987705-.28138473.04498156-.03954597.08546496-.07757093.12744775-.1095119l.11545266-.08061293c.06990962-.05308311.14357881-.10087036.22040964-.14297386-.25429412.20174081-.49568256.4196835-.7227037.65250839-.52032243.58936269-.9381037 1.2641566-1.23549344 1.99555014-.17158543.39875844-.31635733.80884499-.43332234 1.22744586-.09921278.34133114-.18128473.68755012-.24589918 1.03732103-.05397787.30419972-.08546496.5414755-.10345758.71030634-.00426226.08693695-.0152921.17339613-.03298648.25856976z"/>
      <g opacity=".2">
        <path fill="rgb(0,0,0)" fill-rule="evenodd" d="M146.65250247 63.40608119c-.29088073.4213166-.85464959.28138474-1.117042.02433598-.26239243-.25704876-.37334694-.62817242-.47380575-.98408609-.22940594-.81221324-.46181066-1.66397245-.29088074-2.48987468.04088745-.2506257.14934703-.48488521.31337152-.67684437.16870013-.19267674.42579997-.27961203.67472336-.22814978.2848832.07604993.46181066.35895566.5907578.62817241.37678386.79511347.57399305 1.66546924.57726332 2.54767263 0 .41066961-.04648095.84111221-.2743875 1.1787739"/>
      </g>
      <path fill="rgb(232,80,91)" fill-rule="evenodd" d="M145.56394878 65.5385212c-.48736202-.23109001-1.0347451-.2982344-1.56235943-.19164582-.2887248.02570147-.56061358.14887786-.7721834.34982967-.1934207.2159818-.22940595.59623145-.00899632.78179328.14344916.09721077.31555883.14126132.4873002.12472188.41383034 0 .87114284-.07909193 1.19950821.17339384.18892254.14449486.3148709.38329164.5397787.45629957.23098275.05467943.46969176-.0527358.58476024-.26313275.10747565-.21005212.13161808-.453868.06747234-.68140737-.05358016-.32087068-.25147798-.59809752-.53528054-.7498523z"/>
      <path fill="rgb(232,80,91)" fill-rule="evenodd" d="M147.45167481 64.01143862c-.3037238-.40206282-.39184664-.93045011-.23540348-1.41148668.15780448-.47520674.44281702-.8965123.8231625-1.21679887.43011567-.3884286.93075099-.6880767 1.4738957-.88217917.21005381-.08663747.43625897-.12557399.66272829-.1140749.22991162.01338508.438557.14083203.55777131.34070368.14993853.30419972 0 .66467639-.14993853.9612711-.28485412.52316321-.6086625 1.0235044-.96860287 1.49666261-.29088074.37872865-.62374426.7528943-1.06606291.92476714-.44231865.17187284-.89963115.15209986-1.13503464-.15970485"/>
      <path fill="rgb(38,50,56)" fill-rule="evenodd" d="M146.66749633 69.75929227c-.01412925-.06298013-.02265996-.12711916-.02548955-.19164582-.01349447-.13993187-.0299877-.31332571-.0509791-.52170252-.02572223-.2553249-.06425644-.50915393-.11545267-.76049929-.06698873-.30825308-.15875813-.61042133-.2743875-.90347316-.1113663-.29281499-.26278876-.56828027-.44981557-.81829723-.15393627-.20318159-.3506403-.36894485-.57576394-.48519855-.15260628-.07606215-.316024-.12738517-.48430144-.15209986-.06379521-.00181306-.12717868-.01099837-.18892254-.02737797.0637737-.00725842.12814762-.00725842.19192131 0 .1749583.01365216.3460915.05898393.50529283.13384787.23426222.1144938.43945918.28205843.5997541.48976154.19680316.25262173.35547458.53353043.47080697.83350723.11679601.29562616.20810072.60096963.27288812.91259915.04897867.25626125.08252704.51531052.10045881.77570927.01649324.2220658.02249078.40154363.02548955.52626551.00681872.06270873.00631544.12601481-.00149938.18860383z"/>
      <path fill="rgb(38,50,56)" fill-rule="evenodd" d="M146.63750862 69.35774864c-.00346386-.02980978-.00346386-.05992913 0-.08973891v-.25400677c0-.2205448 0-.5384335-.01199508-.93237213-.01799262-.78787726-.08546496-1.87539125-.2144121-3.06937514-.12894712-1.19398389-.29987704-2.27085088-.46031126-3.04199716-.03598525-.19316682-.07346988-.36808166-.10945513-.52018152-.03598524-.15209986-.0614748-.28442673-.08996311-.39089663l-.05847603-.24640177c-.00853213-.02867413-.01356763-.05830098-.01499385-.08821792.01343683.02648911.02351288.05459767.0299877.08365492l.07346988.24335977c.0314871.1049489.06447357.23575478.1019582.38785464.03748463.15209986.0809668.3254937.1214502.51866052.21536152 1.00433546.37653515 2.01984428.48280206 3.04199716.13044651 1.19702589.18892254 2.28149788.1934207 3.07698014 0 .39545963 0 .71486933-.01349447.93541412 0 .1034279-.01199509.18708283-.01499386.25400677-.00124147.03093369-.00627824.06158987-.01499385.09125991z"/>
    </g>
    <g>
      <path fill="rgb(224,224,224)" fill-rule="evenodd" d="M150.20001953 15.00002512v18.77393735h-27.09441256l-.97637523-18.6424712 28.0707878-.13146615z"/>
      <rect width="18.692" height="26.965" x="126.331" y="10.95" fill="rgb(255,255,255)" rx="0" ry="0" transform="rotate(-90.000032 135.67643802 24.43272115)"/>
      <path fill="rgb(224,224,224)" fill-rule="evenodd" d="M122.00001709 33.86254395h27.35287476V15.00002563h-27.35287476v18.86251832zm27.09442139-.25720215h-26.83596802V15.26009644h26.83596802V33.6053418z"/>
      <rect width="21.225" height="13.981" x="125.064" y="17.444" fill="rgb(255,255,255)" rx="0" ry="0"/>
      <path fill="rgb(224,224,224)" fill-rule="evenodd" d="M146.28877524 17.45501251h-1.57368713l-4.37358668.01714776-15.2170951.02846814v13.84978422h21.10406338c.00019527-4.23088926.0229965-7.70110968.02871692-10.12003534v-.03143756c0 2.42749668.01423785 5.90631956.02569877 10.1514729h.00014645l-.00014645.00014576c.00004882.01803944.00009764.03609031.00014645.05415548v.05144327h-21.34528548V17.349268h.06030553l15.3176043.03143756 4.36209991.01714776h1.43584593l.1751732.0571592z"/>
      <path fill="rgb(224,224,224)" fill-rule="evenodd" d="M122.12923174 15.080048c.16719724.08004928.32351624.18088266.46521408.30008576.28716919.20005718.65474574.48013723 1.06252598.80594464.40778025.3258074.76674173.6316091 1.0194506.85738791.14708893.11936246.27747152.25777218.3876784.4115462-.51609062-.35548404-1.01354512-.7370453-1.49040806-1.14318388-.5070073-.37998962-.9894503-.7913984-1.444461-1.23178064z"/>
      <path fill="rgb(224,224,224)" fill-rule="evenodd" d="M149.2236443 15.13149127c-.44989376.43559308-.92966517.8395388-1.43584592 1.20891695-.47272832.4061393-.973645.77859778-1.49902314 1.1146043.44939329-.43614166.92920452-.8401209 1.43584592-1.20891697.47307623-.4057082.97396175-.7781435 1.49902314-1.11460428z"/>
      <path fill="rgb(255,255,255)" fill-rule="evenodd" d="M149.20067077 33.74538287l-3.02101982-2.43498167"/>
      <path fill="rgb(224,224,224)" fill-rule="evenodd" d="M146.17965095 31.30182732c.54494296.35159352 1.06411046.74125607 1.55358529 1.16604756.51791754.39194565 1.00821297.81878331 1.46743453 1.277508-.54289124-.35321382-1.06099338-.74279687-1.5507136-1.16604757-.51917588-.39151083-1.01045564-.81837008-1.47030622-1.277508z"/>
      <path fill="rgb(224,224,224)" fill-rule="evenodd" d="M122.12923174 33.74538287c.44092219-.43100149.91211323-.83021946 1.4100007-1.19462716.47202261-.39882565.9720064-.76366346 1.49615145-1.0917406-.44104989.43284685-.91326233.83307222-1.41287239 1.19748511-.47119995.39772415-.97021804.76160249-1.49327976 1.08888265z"/>
      <rect width="4.704" height="13.29" x="133.699" y="17.495" fill="rgb(224,224,224)" rx="0" ry="0" transform="rotate(-90.000032 136.0511938 24.13978028)"/>
    </g>
    <g>
      <path fill="rgb(224,224,224)" fill-rule="evenodd" d="M49.28521686 9.99696425s-.0163859 0-.04710943-.01431138l-.13518357-.05315656-.5182037-.21467071-1.89257002-.8177932-6.22868555-2.70280652-.18848891-.08063236-6.08525782 2.59330196-1.84341237.77485906-.50386604.2044483c-.0571888.02739198-.11685596.04929657-.17819653.06542345.0542168-.03322285.11107584-.0619417.17000359-.08586828l.4956731-.22284865 1.83112294-.8177932L40.24839982 6h.0225306l.02253059.01022241.21301654.0838238 6.21844436 2.73756274 1.87823237.83823802.50591428.23920451.1310871.06337898c.03072355.01431138.04710943.02248931.0450612.0245338z"/>
      <rect width="40" height="29.896" x="19" y="9.104" fill="rgb(224,224,224)" rx="0" ry="0"/>
      <rect width="37.354" height="27.277" x="20.399" y="10.494" fill="rgb(250,250,250)" rx="0" ry="0"/>
      <path fill="rgb(224,224,224)" fill-rule="evenodd" d="M28.6492396 22.41310947s.03891648 4.57759743.27241537 5.9760238l5.7534948-.27191625s-.50591427-4.49786258-.31133186-5.70410755H28.6492396z"/>
      <path fill="rgb(255,255,255)" fill-rule="evenodd" d="M31.57618896 23.0591687h-.0819397c0 .00204468 0 .00204468.0307312.03067017h.0614319c.07955932-.0003357.1590271.00579834.23760986.0184021.1242981.02096557.24499511.05950927.35842895.11447143.14938355.07546997.28070069.18215943.3850708.31280518.12878418.15783691.21920777.34326172.2642212.54180908.04211425.23098755.02087402.46905518-.0614624.68899536-.04290772.12063599-.09707642.23699951-.1618042.3475647-.06347657.11447143-.131073.23510742-.18637086.36184692-.11437988.25460816-.19338989.52355957-.2348938.79940796h-1.12512207c-.0293579-.28051758-.12631225-.54992676-.28268432-.78509521-.06964112-.11651612-.14746094-.2289734-.21710205-.33938599-.07492066-.10333252-.14331055-.21121216-.20483399-.32302856-.10302734-.21047974-.13534546-.44848633-.09216308-.67874146.02880859-.19885254.09854126-.3895874.20483398-.56021118.09259033-.14111328.21759033-.2581482.36456299-.34143066.10778809-.06234742.22354126-.10983277.34411621-.14105225.07662964-.02062988.15466309-.03564453.23348999-.04498291h.04916382c-.02044678-.00183106-.04101563-.00183106-.0614624 0-.07870484.0057373-.15682984.01803589-.23349.0368042-.12368774.02975464-.24282836.07583618-.3543396.13696289-.14935302.08206177-.27764892.19754028-.37481689.3373413-.10791015.17041016-.17971802.36105347-.21096802.56021119-.04763794.23660278-.01596069.4822998.09011841.69918823.06207276.11343384.13046265.22332764.20480347.3291626.06964111.1104126.14544678.2208252.21508789.33938599.15533447.2350769.25027466.5046997.27648926.78509521v.02044678h1.20437622v-.0184021c.03799438-.28216553.11593628-.55749512.23144531-.81781006.05529785-.1267395.12084961-.24328613.18435669-.35775757.0647583-.1133728.118927-.2324524.1618042-.3557434.08444214-.2265625.10568237-.47177125.06143188-.70944215-.04910278-.20254516-.14364624-.39129638-.27648925-.55200195-.1079712-.13253784-.2435608-.23995972-.39736939-.31484985-.11621094-.05389405-.2397461-.09042359-.36663818-.10836792-.0793457-.01113892-.1595459-.0152588-.23962403-.01226807z"/>
      <path fill="rgb(255,255,255)" fill-rule="evenodd" d="M31.6417102 24.69271362v.06729126c.0907898-.00631714.18109131-.01855468.27035523-.0366211.05767822-.0128479.11392212-.03134154.16796875-.05520629.05130005-.02490234.09616089-.0612793.131073-.10632324.03500366-.04434204.05444336-.09893799.05529785-.155365-.00021362-.05462646-.02233887-.10690307-.06143189-.14517211-.07888793-.07467651-.19430542-.09628296-.29495239-.05517578-.09094238.04095459-.16375732.11364746-.20483398.20443725-.0041504.00927735-.00811768.01861573-.01187134.02801514.00436401-.0114746.0090332-.02285767.01394653-.03414917.03857422-.09320068.1079712-.17037964.19662476-.21875.10708618-.04318237.22955322-.02001953.313385.05926514.0430298.0411377.06741334.09796142.06756593.15744018-.00100708.06021118-.0218811.1184082-.05938721.16558838-.0364685.04702759-.08346558.08483887-.13723755.1104126-.05477905.02606201-.11254883.04528808-.1720581.05725098-.09057618.0187683-.18225098.03155517-.27444458.03829956v.19067382c-.00946045-.0579834-.00643921-.11688232-.0032959-.17782592l.00064087-.01263428c-.02841187.00204468-.05691529.00350952-.0854187.00442505-.07962037.00268554-.15927125.00100708-.23861695-.00497437.00396729.15856934.01855469.30783081.02560425.44656372.01638794.32098389.03070068.58065796.03890991.76055909v.20443725c0-.02249145 0-.11856079-.01229858-.20443725-.01226807-.17990113-.02661133-.4395752-.04504395-.76055909 0-.13909912-.01367187-.28884887-.02401733-.4479065-.0371399-.00308227-.07421875-.00711059-.11117554-.01208495-.05917358-.00915528-.11697388-.02563477-.1720581-.04907227-.04925538-.02713012-.09268189-.06356811-.12786866-.10726928.0821228.08047485.18936158.13061523.30401612.1420288.03527832.0048523.0706787.00878907.10614013.01184082-.00131225-.02081298-.00256347-.04180908-.00372314-.06295776-.00323486-.0973816-.01351929-.19439697-.0307312-.29031372-.01119995-.04891968-.03134156-.09533691-.05938721-.1369934-.0317688-.03710938-.07272339-.06530763-.11880493-.0817566-.04864502-.01934814-.10290527-.01934814-.15158081 0-.04943848.02163696-.0888977.06103516-.1105957.11038208-.02545166.04840088-.03201294.10449219-.01843262.15744019.00689697.03106689.0185852.06072998.03451538.08795166-.01940918-.03082276-.03387451-.06463623-.0426941-.10021973-.01193237-.0572815-.00473022-.11688232.0204773-.16970825.02423096-.05258179.0673523-.09417725.12084961-.11651612.0522461-.0227661.11160278-.0227661.16384888 0 .04943847.02236939.09191894.05770874.12289429.10220337.0288391.04370118.0496521.09216309.0614624.14312744.01745605.0971985.02703857.1956482.028656.29440308 0 .02163696.00024414.04309082.0007019.0643921.07943726.00619506.15924073.00790404.23895264.00512694.02874756-.00079345.0574646-.00216674.08612061-.00411987.00106812-.02218628.00189209-.04464722.00195313-.06744385zm-.75463867-.08886718l-.00524902-.005188c-.01672363-.01739501-.03121948-.03662109-.04330444-.05722045.01193237.01895141.02572631.03674316.04125976.0531311l.0072937.00927735zm.75463868.3607788c.01422119.0871582.01434326.17230225.01434326.25146485-.01434326-.07974243-.01434326-.1635437-.01434326-.25146485zm.05160522-.52603149c-.0303955.07974243-.04779053.16390991-.05148315.2492981.00231933-.08554078.01977539-.16992188.05148315-.2492981zm.07333374 1.740448v.0552063c.00460815.0050354.00872803.01052856.01226807.01635742q-.00057984-.00921631 0-.0184021v-.05316162c0-.04904175-.01843262-.11651612-.03274536-.20443726-.024292-.17575073-.06259156-.42929077-.08917237-.74493408.02261353.31472778.05877686.56958008.08300781.74493408.01229859.08792114.0204773.15744019.02664185.20443726zm-.38711548.07769775c-.000885-.00610351-.000885-.01229858 0-.0184021v.0184021z"/>
      <path fill="rgb(255,255,255)" fill-rule="evenodd" d="M31.85884277 27.37710083h.01843262l-.42892456.02359009-.38424683-.44238281v-.48895264c-.01797485-.0625-.03234863-.12597656-.04299926-.19012451 0 0 0 .07156372.01434326.19216919.01434326.12063598.01638794.30462646.02661133.49682617v-.01226807l.00204467.00234986v.02218627l.37893677.45181275h.01229859l.44854736-.02249146.21713257-.282135.11264038-.1369629c-.00817871-.26171875-.02252197-.51113891-.02252197-.73602295v-.02453613h-.0225525l-.85205078.03271485-.23553466.01226806c-.0265503-.00286865-.05334473-.00286865-.07989502 0 .02996826.00286865.06015014.00286865.0901184 0h1.06576539c.00619506.21542359.01727294.44885254.0177307.6951294l-.11264037.1349182-.22323609.27191163z"/>
      <path fill="rgb(255,255,255)" fill-rule="evenodd" d="M32.17630191 26.92732792l-.04301296-.01840034c-.0373797-.0170782-.07567113-.0320937-.1147012-.04497863-.13167886-.04530573-.27040663-.06676914-.4096472-.06337897-.13700272.00617745-.27200326.03520121-.39940601.08586828-.04915766.02044483-.08807415.04088966-.11265298.05315656-.01277132.00845213-.0265278.01531778-.04096472.02044483l.03686825-.02657828c.03619114-.02163835.07383103-.04076537.11265298-.05724552.12884835-.05819027.2682465-.08949739.40964719-.09200174.13968908-.00498586.27896726.01795293.40964719.06746794.03932112.0144939.07763853.03156855.11470121.05111208.01348882.00622154.02592674.0144983.03686825.0245338z"/>
      <path fill="rgb(255,255,255)" fill-rule="evenodd" d="M32.17630191 26.74741342c-.01499482-.00447306-.02942664-.01064679-.04301296-.01840035-.02662706 0-.06554355-.02862276-.1147012-.04497862-.1318259-.04452637-.27053498-.06529461-.4096472-.0613345-.13727145.00403792-.27264076.03314097-.39940601.0858683-.0385971.01542005-.07621772.03317175-.11265298.05315655l-.04301295.02044483c.01222467-.00990345.0252402-.0187925.03891648-.02657828.03556513-.02209521.07250868-.04189891.11060474-.05929.25929386-.11516605.55355041-.12397757.81929438-.0245338.04915767.01840035.08807415.03884518.11470122.05111207.0136838.00699507.02670858.01520618.03891648.0245338z"/>
      <path fill="rgb(255,255,255)" fill-rule="evenodd" d="M32.16606073 26.57772133l-.04301295-.01840035c-.03796152-.01735445-.07695078-.03237536-.11674945-.04497862-.26162229-.09019756-.54730335-.08146824-.8029085.0245338-.04915766.02044482-.08807415.03884517-.11470121.05315655l-.04096472.02044483c.01109787-.0113242.02432173-.02035553.03891648-.02657828.03556513-.02209521.07250868-.04189891.11060474-.05929.1293473-.056689.26843985-.08792748.4096472-.09200174.13955068-.00294372.27844107.0199312.40964719.06746794.03932111.0144939.07763852.03156855.1147012.05111207l.03482002.0245338z"/>
      <path fill="rgb(235,235,235)" fill-rule="evenodd" d="M22.24030928 14.92621275s.03891649 4.5796419.27241539 5.97602379l5.7534948-.27191624s-.50386605-4.49786258-.30928363-5.70410755h-5.71662656z"/>
      <path fill="rgb(255,255,255)" fill-rule="evenodd" d="M27.0884838 16.85007125c-.6385688.09462675-1.28212648.15196979-1.92739004.17173657-.64283947.05675363-1.28841739.07654967-1.93353475.05929.6385688-.09462675 1.28212648-.15196979 1.92739004-.17173657.64283947-.05675363 1.28841738-.07654967 1.93353474-.05929z"/>
      <path fill="rgb(255,255,255)" fill-rule="evenodd" d="M27.09053203 17.81915619c-.63856879.09462675-1.28212648.15196979-1.92739004.17173657-.64276781.05796619-1.2883766.07844582-1.93353474.06133449.63844764-.09598334 1.2820453-.15401263 1.92739004-.17378106.64283947-.05675363 1.28841738-.07654967 1.93353474-.05929z"/>
      <path fill="rgb(255,255,255)" fill-rule="evenodd" d="M26.11147524 18.77188526c-.36016818.0778026-.72731964.11890303-1.09580623.12266898-.36670786.04064183-.7365991.04406681-1.10399919.01022242.36070156-.07876875.72863216-.11987955 1.09785448-.12266898.36602173-.04065796.73523538-.04408302 1.10195094-.01022242z"/>
      <path fill="rgb(235,235,235)" fill-rule="evenodd" d="M21.9678939 28.3973112s.03891648 4.5796419.27241538 5.97602379l5.7534948-.26987176s-.50386604-4.49786259-.30928362-5.70615203H21.9678939z"/>
      <path fill="rgb(255,255,255)" fill-rule="evenodd" d="M26.81606841 30.3191252c-.63856879.09462677-1.28212647.1519698-1.92739003.17173658-.64276782.05796619-1.28837662.07844582-1.93353475.06133449.63844765-.09598334 1.2820453-.15401263 1.92739004-.17378105.64284-.05674463 1.2884174-.07654064 1.93353474-.05929001z"/>
      <path fill="rgb(255,255,255)" fill-rule="evenodd" d="M26.81811665 31.29229911c-.63871173.09342048-1.28219985.15075732-1.92739004.17173658-.64284.05674462-1.2884174.07654064-1.93353474.05929.63856879-.09462676 1.28212647-.15196979 1.92739003-.17173657.64268902-.05923582 1.28841492-.0790364 1.93353475-.05929z"/>
      <path fill="rgb(255,255,255)" fill-rule="evenodd" d="M25.83905986 32.2429837c-.3627213.07887788-.73277205.11931014-1.10399918.1206245-.36671039.04059975-.73659734.0440247-1.10399918.01022242.36090804-.07751213.72870915-.11860845 1.09785447-.12266898.36879868-.04053507.74078601-.04327533 1.11014389-.00817793z"/>
      <path fill="rgb(235,235,235)" fill-rule="evenodd" d="M37.69220134 16.14063565l.57145783 13.20736014 16.51697476.19831485-.74146142-13.23189394-16.34697117-.17378105z"/>
      <rect width="16.408" height="12.367" x="37.502" y="16.045" fill="rgb(245,245,245)" rx="0" ry="0"/>
      <path fill="rgb(224,224,224)" fill-rule="evenodd" d="M53.91013365 28.41162258V25.01982529c0-2.14582597-.0142168-5.21611195-.0244498-8.92822861l-16.30408725.01015904v12.25886927l11.78350146.02646379 3.36525168.0122669-3.3550105.01431138-11.86747913.0245338h-.0512059V15.9648101h.05939884l16.40637001.01022242h.0450612v.04497862c0 3.74549285-.01843413 6.8408401-.02457884 9.00594759v3.14237036c0 .15129174-.03277177.24329348-.03277177.24329348z"/>
      <rect width="6.651" height="8.356" x="39.48" y="18.666" fill="rgb(245,245,245)" rx="0" ry="0"/>
      <path fill="rgb(224,224,224)" fill-rule="evenodd" d="M46.13298172 27.02137414c-.00141124-.01427662-.00141124-.02865752 0-.04293414v-.57654421c0-.4088966 0-.98135183-.01433765-1.71327675 0-1.45984059-.01414102-3.52257264-.02436582-5.97193482h-6.5443269v8.25177257l4.76829331.02429459 1.35183573.0122669h.01843413l-1.33954632.0122669-4.86660863.05111207h-.04710943v-8.4028251c-.0512059.04906759.06759179-.0715569.0573506-.05929001h6.69977982v.05929c-.01024118 2.48404684-.01843412 4.57759743-.02457883 6.05575863 0 .72579147-.01024118 1.30233567-.01433765 1.70305434v.56018834c0 .00861545-.00161606.01529477-.0039408.02044483-.00595013.01318487-.01654156.01635586-.01654156.01635586z"/>
      <rect width="12.746" height="1.204" x="39.736" y="16.754" fill="rgb(245,245,245)" rx="0" ry="0"/>
      <path fill="rgb(224,224,224)" fill-rule="evenodd" d="M52.48451416 17.952052c-.00128174.00204468-.00213623.00408936-.00201416.00613404.00067139-.00201416.00134277-.00405884.00201416-.00613404zm.0045166-.01473999c-.00146484.00512695-.0029602.00997925-.0045166.01477051.0008545-.0014038.0019226-.00280762.0029602-.0041809.00253296-.00338746.00506592-.00677491.00497437-.01016236h-.00354004zm-.00738525.00042725h.00726318c.00494385-.01712036.00891113-.0340271.01202393-.05111695v-.22897338c.0020752-.2105713.01229858-.51315308.01229858-.89956665v-.02249146h-.02252197c-2.15066528-.02044678-7.05001831-.03475952-12.7461853-.03475952l-.05734253.05725098v1.22055053h.0593872l9.07574463-.02453613 2.67089844-.01620483-2.71185303-.01651001-8.97946167-.02438355v-1.08779907c5.65338135-.00009155 10.51425171-.01226807 12.66903687-.03253174.01156616.3696289.01156616.6642456.01156616.86462402v.23306275c-.00115967.02072143-.00146484.04147339-.00088501.06222534-.01879883-.00158691-.03771973-.00119019-.05645752.00115967h.05648804z"/>
      <rect width="5.536" height="5.036" x="46.946" y="18.666" fill="rgb(245,245,245)" rx="0" ry="0"/>
      <path fill="rgb(224,224,224)" fill-rule="evenodd" d="M52.48253052 23.33108032v.27191162c-.00204468.0272522-.00238037.05459595-.00100708.08184815-.00222779.00338745-.0043335.0067749-.0062561.01016235h-.06445313c.02374267.00219727.0475769.00274658.07138061.00170899l.00030518.00442504.00268555-.00457763c.0072937-.00036621.01461792-.00088501.0218811-.0015564h-.01184082c0 .00027466-.00317383.00054932-.00637817.00082398l-.00341797.00030517.00064087-.00112915h-.00396729l-.00057983-.01016235c.0131836-.02038574.03033447-.04156494.03787231-.06344605v-.26577758c.01226807-.24942017.01226807-.59085083.01226807-1.02224732.00616455-.89138794.02459717-2.15283203.02459717-3.66778564v-.05725098h-5.57940674l-.05529785.05725098v5.06622314h.04916381l4.02478028-.02453613 1.10195923-.01205445-1.13269043-.01248168-3.94488526-.02423096v-4.94180298h5.4260254c.00827026 1.47976685.0243225 2.71411133.0243225 3.59213257.01229859.4293518.01229859.77487182.01229859 1.02224731z"/>
      <rect width="5.536" height="2.531" x="46.946" y="24.49" fill="rgb(245,245,245)" rx="0" ry="0"/>
      <path fill="rgb(224,224,224)" fill-rule="evenodd" d="M52.4825 26.83739746l-.01022339-.50704956c0-.43972778-.01385498-1.05102539-.02209473-1.79901123l-5.43237304.01605225v2.41912841l3.90597534.02420044 1.15316772.01461792-1.11834716.01400757-3.99404908.02658081h-.05325317v-2.55355835l.05529785-.0552063 5.53024292.01431275h.0409546v.04089355c0 .77688599-.01638795 1.41067505-.02252198 1.864563 0 .20443725 0 .3741455-.0102539.49884032-.0029297.04333496-.01477052.08648682-.02401734.12930298-.00152588-.04922485-.0010376-.09851074.00149536-.14767456zm-.00149536.14767456l.00073242.0199585h.00402832l-.00015259.00085449-.00308227.01550293-.00073242-.01501465c-.02703858.00146484-.05419922.00100708-.08120728-.00134277h.07632446c.00128174-.00665283.00265503-.01330567.00408936-.0199585zm.0199585.0199585c-.00430298.00039673-.00863648.0007019-.01293946.00097656.00308228-.0005188.00619507-.00073242.00616455-.00097656h.0067749z"/>
      <path fill="rgb(255,255,255)" fill-rule="evenodd" d="M45.9670746 18.67988353c-2.05847713 2.8479648-4.43647908 5.5057927-6.48471503 8.34149061"/>
      <path fill="rgb(224,224,224)" fill-rule="evenodd" d="M39.48235957 27.02137414c.01484552-.03331809.0333961-.06486489.05530237-.09404622l.17410005-.25351589c.15156947-.22080416.37892366-.53361006.6656767-.91797286.57145782-.76668113 1.38870397-1.80527849 2.30426544-2.93996655.91556147-1.13468806 1.74100057-2.16510749 2.33089252-2.92361068.2847048-.36800694.5182037-.67059042.69435199-.89548355l.19048594-.241249c.01996266-.02985606.04410351-.05670657.07168826-.07973483.02758476-.02302826-.01433765.03475621-.05325413.09404622l-.17410006.25351589c-.15156946.22080416-.38097189.53361006-.66567668.91592838-.57350607.77077009-1.39280045 1.81141193-2.31655487 2.9461-.92375442 1.13468806-1.7430488 2.16510748-2.32884428 2.9195217l-.694352.89343908-.19048594.24329347c-.03686824.05315656-.06349531.08177932-.06349531.07973484z"/>
      <path fill="none" d="M39.48031133 18.66557215l6.65267039 8.35580199"/>
      <path fill="rgb(224,224,224)" fill-rule="evenodd" d="M46.13298172 27.02137414c-.02457883.01840035-1.53412873-1.8400347-3.37139639-4.14212254-1.83726765-2.30208786-3.30585283-4.1952791-3.27922576-4.21367945.02662707-.01840035 1.53412873 1.84003469 3.37139638 4.14212254 1.83726766 2.30208785 3.30175637 4.19323462 3.27922577 4.21367945z"/>
      <path fill="rgb(224,224,224)" fill-rule="evenodd" d="M38.26365917 18.6839725c-.00001304.42164173-.25491831.80160464-.64550012.96218528-.3905818.16058064-.83963752.07003856-1.13714995-.22928096-.29751243-.29931952-.3846751-.74825281-.22072323-1.13683993.16395187-.38858713.54661147-.64001973.96901415-.63670624.57258351.00449157 1.03437683.46908981 1.03435915 1.04064184z"/>
      <path fill="rgb(224,224,224)" fill-rule="evenodd" d="M55.2804035 16.16108048c0 .57360148-.46584945 1.03859736-1.04050386 1.03859736-.57465442 0-1.04050387-.46499588-1.04050387-1.03859736 0-.57360149.46584945-1.03859736 1.04050387-1.03859736.27612555-.00054417.54109865.10870441.73634927.30359729.19525063.19489287.30469976.45938046.3041546.73500007z"/>
    </g>
    <g>
      <path fill="rgb(245,245,245)" fill-rule="evenodd" d="M111.0022263 64.83582287v2.91643098h-.55173748v.31636295h.55173749v1.9545339h10.31894299v-1.77521886h-.76372084v-.3842465h.76372084v-.58021223h.3455619v-.27025338h-.40363953v-2.17739686H111.0022263z"/>
      <path fill="rgb(224,224,224)" fill-rule="evenodd" d="M118.58135708 64.84606944v5.14506072h2.73981222v-1.77649968h-.76372084v-.35350679l.76372084.0115274v-.58021223h.34701384l-.0072597-.29971227-.4021876-.00896575V64.8383845l-2.67737876.00768493z"/>
      <path fill="rgb(224,224,224)" fill-rule="evenodd" d="M118.77591714 68.03019215c0 .0179315-1.86719582.03202055-4.16997386.03202055-2.30277805 0-4.16997387-.01408904-4.16997387-.03202055 0-.0179315 1.86719582-.03330136 4.16997387-.03330136 2.30277804 0 4.16997386.01536986 4.16997386.03330136z"/>
      <path fill="rgb(224,224,224)" fill-rule="evenodd" d="M118.77591714 67.73304152c0 .0179315-1.86719582.03202054-4.16997386.03202054-2.30277805 0-4.16997387-.01408903-4.16997387-.03202054 0-.0179315 1.86719582-.03202054 4.16997387-.03202054 2.30277804 0 4.16997386.01408904 4.16997386.03202054z"/>
      <path fill="rgb(224,224,224)" fill-rule="evenodd" d="M119.31168328 66.93637043c0 .0179315-1.86719582.03202054-4.16997386.03202054-2.30277805 0-4.16997387-.01408903-4.16997387-.03202054 0-.0179315 1.86719582-.03330136 4.16997387-.03330136 2.30277804 0 4.16997386.01536986 4.16997386.03330136z"/>
      <path fill="rgb(224,224,224)" fill-rule="evenodd" d="M119.36395315 69.10864401c0 .0179315-1.86719582.03202055-4.16997386.03202055-2.30277805 0-4.17142581-.01408904-4.17142581-.03202055 0-.0179315 1.86719582-.03202054 4.1714258-.03202054 2.30423 0 4.16997387.01408904 4.16997387.03202054z"/>
      <path fill="rgb(235,235,235)" fill-rule="evenodd" d="M79.85083729 55.58444782h7.8724228c.26608934 0 .52128034-.09324584.70943392-.2592245.18815357-.16597865.29385715-.39109402.29385715-.62582329v-2.13897221c0-.82338833-.75666521-1.49087645-1.69005905-1.49087645h-7.2451844l.05952958 4.51489645z"/>
      <path fill="rgb(235,235,235)" fill-rule="evenodd" d="M87.58677766 56.93059141H72.1076372c-.20280377-.00033882-.39712709-.07182057-.54012213-.19868368-.14299504-.12686311-.22291825-.2986889-.22214677-.47759017 0-.3713736.34127941-.67243138.7622689-.67243138h15.47914045c.42098949 0 .7622689.30105778.7622689.67243138.00077148.17890128-.07915174.35072706-.22214678.47759017-.14299503.12686311-.33731835.19834486-.54012212.19868368z"/>
      <path fill="rgb(224,224,224)" fill-rule="evenodd" d="M68.95256994 37.65678666l8.51563256-.12808216 5.40557545 18.02116113-11.52840964.10246574-4.3456587-15.8040588c-.1450786-.52844274-.00742452-1.08639109.373489-1.51384952.38091352-.42745843.96301076-.67720987 1.57937133-.67763639z"/>
      <path fill="rgb(235,235,235)" fill-rule="evenodd" d="M73.19514084 56.93059141L70.6469848 69.99241098h.6983835l3.34962734-13.06181957h-1.4998548z"/>
      <path fill="rgb(224,224,224)" fill-rule="evenodd" d="M79.20181977 56.93059141l-2.70786952 13.06181957h.6983835l3.50934082-13.06181957h-1.4998548z"/>
      <path fill="rgb(235,235,235)" fill-rule="evenodd" d="M85.84590069 56.93059141l3.02003678 13.06181957h-.6983835L84.34604587 56.9305914h1.4998548z"/>
      <path fill="rgb(235,235,235)" fill-rule="evenodd" d="M76.49395025 37.5235812l4.2106282 18.04037347h3.23202014l-3.37576227-15.9398259c-.2554302-1.21706933-1.4586585-2.1002408-2.86177524-2.10054756h-1.20511083z"/>
      <path fill="rgb(38,50,56)" fill-rule="evenodd" d="M124 70.06285617c0 .01921233-13.43190398.03330136-29.99854806.03330136C77.43480786 70.09615753 64 70.08719178 64 70.06285617s13.43045204-.03330136 30.00145194-.03330136c16.5709999 0 29.99854806.01536986 29.99854806.03330136z"/>
      <path fill="rgb(232,80,91)" fill-rule="evenodd" d="M85.9460846 70.1H74.84454554l.83922176-7.12905351 10.2623173-.05763698V70.1z"/>
      <g opacity=".4">
        <path fill="rgb(0,0,0)" fill-rule="evenodd" d="M85.9460846 70.1H74.84454554l.83922176-7.12905351 10.2623173-.05763698V70.1z"/>
      </g>
      <rect width="11.102" height="7.187" x="76.463" y="62.913" fill="rgb(232,80,91)" rx="0" ry="0"/>
      <g opacity=".2">
        <rect width="11.102" height="7.187" x="76.463" y="62.913" fill="rgb(0,0,0)" rx="0" ry="0"/>
      </g>
      <path fill="rgb(38,50,56)" fill-rule="evenodd" d="M87.6593747 66.39202122c0 .01921232-2.49879005.03330136-5.5783564.03330136-3.07956636 0-5.57980835-.01408904-5.57980835-.03330136 0-.01921233 2.4973381-.03330137 5.57980834-.03330137 3.08247024 0 5.5783564.01408904 5.5783564.03330137z"/>
      <path fill="rgb(38,50,56)" fill-rule="evenodd" d="M78.4410028 67.08494575c-.05033973-.357684-.05033973-.71948705 0-1.07717104.05033974.35768399.05033974.71948705 0 1.07717104z"/>
      <path fill="rgb(38,50,56)" fill-rule="evenodd" d="M86.15516407 67.04524028c-.05034006-.31866579-.05034006-.64195048 0-.96061627.05034006.31866579.05034006.64195048 0 .96061627z"/>
      <path fill="rgb(38,50,56)" fill-rule="evenodd" d="M83.71445165 62.95045334c-.0072597 0 0-.07813012-.02613493-.21389722-.03765925-.19064696-.12134277-.3719233-.245378-.531541-.18447354-.23618193-.43848441-.42350098-.73468202-.54178757-.3653592-.1418764-.76270566-.20803649-1.1615526-.19340408-.401221.0029925-.79714409.08113975-1.16155261.22926708-.29511436.12082203-.55009386.30649853-.7404898.53922593-.12944646.15646153-.22224248.33411408-.27296486.52257525-.03339463.12808217-.03484657.21133558-.04210628.21005476-.0037275-.0182112-.0037275-.03686413 0-.05507533.00087608-.05369609.00670306-.10724029.0174233-.16010271.04083886-.1954987.12845016-.38107204.2569935-.54434922.1912879-.24428588.45153235-.4403061.7550092-.56868483.37041123-.15376667.7739819-.23545186 1.18333172-.23951366.40988851-.01475072.81803301.05497736 1.19204337.20365065.30492278.12555981.56393678.32387835.74774949.5725273.12489446.166469.20395029.35638628.23085858.55459579.0053434.05326349.0053434.10683922 0 .1601027.0041399.01857334.00463102.0376361.00145194.05635616z"/>
      <path fill="rgb(232,80,91)" fill-rule="evenodd" d="M79.55028555 35.19248574c.53058375-.21952717 1.12682013-.28370228 1.70167457-.1831575.30926338.04482876.63159423.12808217.8406737.33173281.20907947.20365065.25118575.56484237.00871165.74031494-.15559741.09273812-.3431204.13443363-.52995838.1178356-.4486497 0-.94811732-.07428766-1.30674669.165226-.20472364.1357671-.34120608.36247253-.5807763.42907526-.251792.05108288-.51156296-.05070603-.637402-.24976023-.11514663-.19768733-.14108758-.42652406-.07259703-.64041084.05570753-.30337504.26894752-.5663479.57642048-.71085604z"/>
      <path fill="rgb(232,80,91)" fill-rule="evenodd" d="M78.36550189 33.17262994c.31652308.39833554.93069403.2664109 1.21672636.02305479.28603232-.24335612.40509147-.59558209.51543897-.93243819.25118575-.76849301.50382344-1.57412985.31652308-2.35799273-.0445683-.23715453-.16266145-.45880396-.34120608-.64041084-.18373827-.1823973-.46356673-.26484297-.73468202-.21645886-.31071533.07300683-.50382345.34069856-.64175782.59558208-.41129173.75241971-.62659506 1.57646509-.63014229 2.41178724 0 .3842465.05081793.79667109.2990998 1.1168765"/>
      <path fill="rgb(232,80,91)" fill-rule="evenodd" d="M76.85545532 31.25649536c.41397095.30358887.72415161.70266724.89587403 1.15274048.16574096.44213867.0802307.92669678-.22769165 1.30288696-.2609253.27340699-.74584961.28759766-1.2170105.12908936-.48349-.1626587-.84646607-.51617432-1.16152954-.87609863-.39343262-.44677735-.74591065-.9204712-1.05413819-1.41656495-.168396-.28179931-.33828735-.62634277-.168396-.91067504.12692261-.1895752.35202027-.31140137.60107423-.32531739.24798584-.01089477.4956665.02581787.72598266.10757447.59188843.18392944 1.13739014.4680481 1.60583496.83636474zm.66818238 2.45562744c-.00909424.0111084-.01837159.02212525-.02786255.03305054l.04641723-.05337524c-.00604248.00692749-.01223755.01370239-.01855468.0203247z"/>
      <path fill="rgb(38,50,56)" fill-rule="evenodd" d="M78.34372278 39.1886494c.01683501-.05956773.02656747-.12052432.02903881-.18187668.0145194-.12808217.0319427-.29715063.0537218-.49439717.02809873-.24338664.07025985-.4853497.12631886-.72494507.07395804-.29212738.17396927-.57864242.2990998-.85686971.12359437-.27528276.29024746-.53395512.4951118-.76849301.16776694-.19246803.3820373-.34954503.6272384-.45981499.1660228-.07226359.34387009-.1211017.5270545-.14473285.06908183-.00296954.13765909-.01197944.20472364-.02689726-.06903818-.0060694-.13858935-.0060694-.20762752 0-.1907438.01275598-.37723752.05616348-.55028555.12808217-.25811932.1070859-.48433371.26585178-.66063305.46365745-.21527789.23872996-.38855176.50471078-.51398703.78898616-.12518468.2823597-.22234549.5737733-.29038815.87095875-.05237186.24257128-.08873158.4876207-.10889556.73391083-.01742329.21005475-.024683.3842465-.02758687.49823963-.0076739.0578261-.0086469.1161916-.00290388.17419175z"/>
      <path fill="rgb(38,50,56)" fill-rule="evenodd" d="M78.38292518 38.80824536c.0036467-.02808626.0036467-.05644797 0-.08453423v-.24079448c0-.20877393 0-.51232867.01161552-.88376696.02177911-.74543822.09437615-1.5472326.2352144-2.67947897.13212662-1.06436282.31071533-2.30547904.49946763-3.10727341.04065434-.1831575.08130868-.3483835.12051108-.49183553.0392024-.14345203.06678928-.26897256.09728003-.37015747.03049076-.10118491.0464621-.17291093.0638854-.23439037.00896186-.02667458.01432274-.05418918.01597134-.08197259-.01415408.0248217-.0248784.05105281-.0319427.07813013-.0217791.06019862-.04791404.13704792-.07985673.2305479-.0319427.09349998-.0711451.2241438-.11179944.36759583-.04065434.14345202-.08856839.30867802-.13212661.49183552-.23488844.95188994-.41083383 1.91435847-.5270545 2.88312962-.14519407 1.1335272-.20472365 2.16586947-.2105314 2.91386934 0 .37271911 0 .67627385.0145194.88504778 0 .09734245.01306747.1767534.01742329.23951366.00181662.02870588.0076692.05710144.01742329.08453423z"/>
      <path fill="rgb(38,50,56)" fill-rule="evenodd" d="M78.387281 36.81656764c.00921323-.08519472.00921323-.17096962 0-.25616434-.01589319-.22829077-.04496974-.45571833-.08711645-.68139714-.06264409-.33433618-.14650447-.66530835-.25118575-.99135598-.12274608-.40048415-.2795152-.79224306-.46897686-1.17195185-.32684958-.70056847-.79464427-1.3432112-1.38079567-1.89689692-.10156326-.09469782-.21021917-.1832737-.32523473-.26513008-.04936598-.03714383-.0929242-.07428766-.13793437-.10374656l-.12631885-.0768493c-.07565074-.05078625-.15576-.09618505-.23957022-.1357671.27616002.19160419.53850272.39821766.78549995.61863687.56753634.55739358 1.02275625 1.19635305 1.34594908 1.889212.18618872.37776354.34430065.76581926.4733327 1.16170526.12196302.36503418.20472364.69932864.26570515.98239024.06098151.28306159.09292421.51232867.11325138.6737122.00390288.08515362.01506596.16992731.03339464.2536027z"/>
      <path fill="rgb(38,50,56)" fill-rule="evenodd" d="M76.20646598 40.3285807l.22650275 2.73327348h3.97976963l.22650276-2.73327348h-4.43277514z"/>
      <rect width="5.292" height="1.077" x="75.822" y="39.251" fill="rgb(38,50,56)" rx="0" ry="0"/>
      <path fill="rgb(69,90,100)" fill-rule="evenodd" d="M75.82170167 42.95810763v.29843145H81.0269093v-.29843145h-5.20520763z"/>
      <path fill="rgb(69,90,100)" fill-rule="evenodd" d="M76.3139096 43.78167597l-.24392606-.52513689H80.838157l-.28458039.5251369H76.3139096z"/>
      <path fill="rgb(224,224,224)" fill-rule="evenodd" d="M80.56519214 41.22259424s0 .00896575-.01887523.02433561l-.05952957.0704452c-.05517375.06404108-.13357855.15113696-.23085858.25616433l-.01016359.0115274-.01016358-.0115274-.5499821-.66416752c-.16464137.20488792-.3465013.43201347-.54042541.67569492l-.0174233.02177397-.02032716-.02049315-.6529334-.68172375-.01786324.01953894-.5952957.65834235-.01887524.02177396-.01887523-.02305479-.55188558-.67908397-.67355242.67780315-.01161553.0115274-.01016358-.01408904-.21633917-.32020542c-.02323106-.03458219-.04065435-.06276027-.05517375-.08581506-.00746298-.00898624-.01333753-.01891901-.0174233-.0294589 0 0 .00871165.00768494.02323106.02689726l.06098151.08197259.21862017.30218042.6670637-.69155021.01742329-.0179315.01597134.01921232.5483414.67472277.57255687-.63629812.03775046-.0409863.01887523-.02049314.01887523.02049314.6432025.67789794.54884087-.6753363.01742328-.02049314.01597135.02049315.54824848.69144646.22999177-.2444397.06533733-.06660272.02903882-.02049315z"/>
      <path fill="rgb(69,90,100)" fill-rule="evenodd" d="M80.69441487 40.3106492c0 .01280822-.9974833.02177397-2.22727713.02177397-1.22979382 0-2.22727713-.00896575-2.22727713-.02177397s.99603137-.02177397 2.22727713-.02177397c1.23124577 0 2.22727713.01024658 2.22727713.02177397z"/>
      <path fill="rgb(38,50,56)" fill-rule="evenodd" d="M80.89623463 43.28599798c0 .0115274-1.08459974.02177397-2.42183719.02177397-1.33723744 0-2.42038524-.01024657-2.42038524-.02177397s1.0831478-.02177397 2.42038524-.02177397c1.33723745 0 2.4218372.01024657 2.4218372.02177397z"/>
      <rect width="11.656" height=".5" x="101.492" y="43.344" fill="rgb(38,50,56)" rx="0" ry="0" transform="rotate(-179.999936 107.32010454 43.59339518)"/>
      <path fill="rgb(38,50,56)" fill-rule="evenodd" d="M114.95440906 43.84315541l2.18662279-7.22767678h-9.1007647l-1.9804472 7.22767678h8.89458911z"/>
      <path fill="rgb(69,90,100)" fill-rule="evenodd" d="M106.60574969 43.29624455h8.12941632l1.89333075-6.34647146h-8.17297455l-1.84977252 6.34647146z"/>
      <path fill="rgb(38,50,56)" fill-rule="evenodd" d="M106.51573364 43.36028564h8.27606201l1.9383545-6.47454834h-8.3269043l-1.8875122 6.47454834zm8.16864014-.12808227h-7.98568726l1.81347657-6.21838379h8.02633667l-1.85412598 6.21838379z"/>
      <rect width=".588" height="24.792" x="77.471" y="45.247" fill="rgb(69,90,100)" rx="0" ry="0"/>
      <rect width=".588" height="24.72" x="78.059" y="45.317" fill="rgb(38,50,56)" rx="0" ry="0"/>
      <rect width=".588" height="24.792" x="113.735" y="45.247" fill="rgb(69,90,100)" rx="0" ry="0"/>
      <rect width=".588" height="24.72" x="114.324" y="45.317" fill="rgb(38,50,56)" rx="0" ry="0"/>
      <rect width="52.477" height="2.034" x="70.647" y="43.806" fill="rgb(69,90,100)" rx="0" ry="0"/>
      <rect width="19.684" height="3.366" x="94.346" y="45.84" fill="rgb(69,90,100)" rx="0" ry="0"/>
      <path fill="rgb(38,50,56)" fill-rule="evenodd" d="M105.06524054 47.28856575c0 .21221349-.1950168.3842465-.43558223.3842465-.24056542 0-.43558223-.17203301-.43558223-.3842465 0-.21221348.1950168-.3842465.43558223-.3842465.24056542 0 .43558223.17203302.43558223.3842465z"/>
      <path fill="rgb(38,50,56)" fill-rule="evenodd" d="M118.3185558 45.83995642c0 .0179315-6.82412157.03330137-15.23085858.03330137-8.406737 0-15.23231052-.01536986-15.23231052-.03330137 0-.0179315 6.82412158-.03330136 15.23231052-.03330136 8.40818895 0 15.23085858.01408904 15.23085858.03330136z"/>
    </g>
    <g>
      <path fill="rgb(235,153,110)" fill-rule="evenodd" d="M65.57860298 17.59865609c.07390355 0 1.0743386.17041817 1.0743386.17041817l1.35352975 1.74050038.20391905.32966138-1.82569131 1.19013348-.80609609-1.21807088-.6842921-.45398284c.20806795-.16116735.48688795-.1902724.72261246-.075431.26978389.11577696.5599858.17378078.85262795.17041817l-.24087082-.69843514-.74177263-.15086199.09169514-1.00434973z"/>
      <path fill="rgb(38,50,56)" fill-rule="evenodd" d="M65.66619237 16.37918833c.05759505-.01487285.11866515-.0042447.16817712.02926817.04951197.03351288.08286684.08679761.09185388.14673749.11085532.71380071.44615844 2.86079034.54743367 3.4921757.01769515.10395914-.0452238.20452909-.14506992.23188047l-1.61766651.45677658c-.05643776.01588184-.1168541.00588384-.1654842-.02738515-.0486301-.033269-.08064976-.08650864-.08770388-.14582676l-.43520977-3.56620983c-.01301274-.10785266.05431665-.2088426.15738718-.23607108l1.48628243-.38134559z"/>
      <path fill="rgb(235,235,235)" fill-rule="evenodd" d="M64.5822737 20.29740948l1.64230102-.46655468-.43520977-2.96695248c-.01176995-.08087498-.05669199-.15282103-.12354498-.1978666-.06685299-.04504557-.14932404-.05893706-.22681258-.03820448l-1.3152094.3575988.4584757 3.31197944z"/>
      <path fill="rgb(235,153,110)" fill-rule="evenodd" d="M66.19036011 18.12667306l-.73766687.56712933s.06158628.19695871.17381019.21232428c.23903708-.03189953.47518808-.08328228.70618944-.15365573l-.14233276-.62579788z"/>
      <path fill="rgb(235,153,110)" fill-rule="evenodd" d="M66.10140214 17.67688083l-.77325007.34502696s-.05063761.25702413.23813365.22210237l-.2586624.18857749s.06432345.11454336.38730932.12851206c.32298587.0139687.63639165-.44280787.63639165-.44280787l-.22992215-.44141101z"/>
      <path fill="rgb(209,115,74)" fill-rule="evenodd" d="M66.86917787 18.55411536c0 .01117497-.0944323-.00838122-.19707612-.10476527-.05554496-.0551622-.11501261-.10605408-.17791595-.15225886-.07075748-.0531352-.1633565-.06527932-.24497657-.03212801-.21467305.1261778-.43892967.23455097-.67060625.3240739.20058128-.15460483.41720626-.2862356.64597174-.39252055.05256808-.02125504.10980669-.02753174.16559869-.01815931.0492795.0113991.09581736.03277398.13685842.06285916.06341037.05117838.12205252.10822689.17517877.17041817.0514278.05242895.1073016.10010861.16696727.14248077z"/>
      <path fill="rgb(209,115,74)" fill-rule="evenodd" d="M66.71726503 20.5223056c-.27085883-.33465736-.31936175-.80220818-.12317258-1.18733975-.037425.19920674-.0516657.40222816-.04242611.60484483.03292455.20005248.08849623.39552639.16559869.58249491z"/>
      <path fill="rgb(209,115,74)" fill-rule="evenodd" d="M66.61462121 18.02470153c-.04662572-.03333458-.09664065-.06143476-.14917567-.08381222-.13134525-.03762752-.2719169-.02107248-.39141508.04609672-.14643851.06984351-.27371684.16064008-.37772924.20533993-.1040124.04469985-.17517877.05308107-.17654736.04469985-.00136858-.00838122.06158629-.03492176.15328143-.09079657.09169514-.05587481.21349913-.14946512.37088632-.22629298.07515204-.03686068.15636889-.05912403.23950223-.0656529.0690041-.00329755.13782975.00960517.20118188.03771549.10811815.05308107.138227.12990894.1300155.13270268z"/>
      <path fill="rgb(232,80,91)" fill-rule="evenodd" d="M66.55987785 22.96822545l4.02226893 2.63589423-1.06612708 3.11222699s-2.75222281-.86605958-2.70021661-.95825302c.0520062-.09219344-.25592524-4.7898682-.25592524-4.7898682z"/>
      <path fill="rgb(38,50,56)" fill-rule="evenodd" d="M65.5170167 65.09923003l-.63365449 2.97393683S67.63284785 69.72845815 67.5685244 70.29l-5.69331023-1.04485897.79925317-4.67532484 2.84254936.52941384z"/>
      <path fill="rgb(69,90,100)" fill-rule="evenodd" d="M61.87521416 69.24514103l.09853807-.46795155 5.42233056 1.17616478s.2340279.15924321.1724416.33664574l-5.69331023-1.04485897z"/>
      <path fill="rgb(38,50,56)" fill-rule="evenodd" d="M59.0408763 65.42749455l-.0944323 3.0409866s2.99856796 1.11749623 3.03415115 1.6832287l-5.78500537.02514366-.0437947-4.74935896h2.88908123z"/>
      <g opacity=".6">
        <path fill="rgb(69,90,100)" fill-rule="evenodd" d="M56.19558978 70.1768535l.01368584-.47772963 5.54139738.15365573s.25866241.1131465.22992215.29893024l-5.78500537.02514367z"/>
      </g>
      <path fill="rgb(235,153,110)" fill-rule="evenodd" d="M59.87981842 15.55084426l.58985978 6.9843514 3.42146048-.27937405c.02052876-.40788612-.00821151-1.98634954-.00821151-1.98634954s1.42469614-.22629299 1.44248774-1.67624434c.0082115-.70681636-.09032656-2.1665458-.19433896-3.48100074-.1151254-1.45793487-1.3503538-2.55489384-2.78096307-2.46966666-.70839551.04340524-1.3697571.37637878-1.83463044.92367534-.46487334.54729655-.69402236 1.26272342-.63566402 1.98460859z"/>
      <path fill="rgb(209,115,74)" fill-rule="evenodd" d="M63.8884015 20.24153466c-.65696083.0151917-1.30347886-.16959425-1.85716874-.5308107-.55368987-.36121646.43931553 1.04625584 1.8612745.91495003l-.00410575-.38413933z"/>
      <path fill="rgb(38,50,56)" fill-rule="evenodd" d="M64.5822737 16.1221642c.00011955.11200706-.08608809.20430361-.19570755.20953054-.05238388.00422171-.10423053-.01323466-.14387165-.04844049-.03964112-.03520582-.0637462-.08520324-.06689031-.13874012.00132996-.1101543.08652583-.20017287.19433895-.20533993.05202624-.0050255.1038431.01154693.1437562.04597715.03991311.03443021.06455861.08381643.06837435.13701285z"/>
      <path fill="rgb(38,50,56)" fill-rule="evenodd" d="M64.82998743 15.8358058c-.0260031.02654053-.17928453-.0893997-.398258-.0893997s-.37909782.11314649-.40373234.08520908c-.02463451-.0279374.01368585-.06006542.08485222-.11314649.09420778-.06714453.20672693-.102331.32161729-.10057466.11390486-.00082165.22510966.03538195.31751153.1033684.06706063.05308107.09032656.10197153.0780093.11454336z"/>
      <path fill="rgb(38,50,56)" fill-rule="evenodd" d="M62.48012838 16.1221642c.00082753.1122945-.08577297.20501167-.19570754.20953054-.05224507.00421953-.10394524-.01327708-.1433706-.04852013-.03942535-.03524306-.0632335-.08524473-.06602278-.13866048-.00155339-.11258643.08545261-.20573774.19570753-.20953055.05233321-.00461948.10424991.01273586.14376567.04805973.03951576.03532387.06321526.08556325.06562772.1391209z"/>
      <path fill="rgb(38,50,56)" fill-rule="evenodd" d="M62.6772045 15.8777119c-.02463452.02654054-.17928453-.0893997-.398258-.0893997s-.37909782.1131465-.40236375.0852091c-.02326593-.02793741.01368584-.0614623.08348363-.1131465.09494749-.06682815.20765243-.1024108.32298587-.10197153.11394009.00034509.2249353.03696878.31751153.10476527.06706063.05308107.08895798.10197153.07664072.11454336z"/>
      <path fill="rgb(38,50,56)" fill-rule="evenodd" d="M63.47235191 17.53440006c.11406673-.03378734.23169316-.05348429.35035756-.05866855.05611195 0 .10811815-.01676245.11769824-.05587482.00553407-.05891307-.00740505-.11809796-.03695178-.1690213-.05337478-.13968703-.10811815-.27937406-.16559868-.43442666-.22992215-.61881353-.39552083-1.12727432-.37088632-1.1370524.02463452-.0097781.22992214.48471398.45984429 1.10352752.05474337.15225886.10811815.29753337.15875576.4372204.03489989.06877463.04506988.14786176.02874027.22349924-.01583711.04118167-.04985125.07227166-.09169514.08381222-.0313614.0080927-.06347387.01277501-.0958009.0139687-.1179983.01226389-.23701666.00991875-.3544633-.00698435z"/>
      <path fill="rgb(38,50,56)" fill-rule="evenodd" d="M62.82774876 17.68945266c.03558319 0 .03695177.24026169.23950223.41906108.20255046.1787994.45710712.13968703.4584757.1787994.0013686.03911237-.05611194.04749359-.16286151.05028733-.13988407.0010613-.2756262-.04842-.38320357-.13968703-.10278383-.0870601-.16891624-.21105871-.18475887-.34642383-.00958009-.09638405.01642301-.16343382.03284602-.16203695z"/>
      <path fill="rgb(38,50,56)" fill-rule="evenodd" d="M62.73468504 15.00187424c-.02189735.06006542-.24087082.03212801-.49679607.06285916-.25592524.03073115-.46531862.1033684-.49953323.04889046-.01505442-.02514367.02189735-.08241535.10538099-.13968703.11088049-.07401209.23766021-.11954173.36951773-.13270268.13130858-.01554467.26436008.00023507.3886779.04609672.09443232.0377155.14233276.08520909.13275268.11454337z"/>
      <path fill="rgb(38,50,56)" fill-rule="evenodd" d="M64.74924096 15.18905485c-.03832035.05028733-.18886462 0-.37088631 0-.1820217 0-.33530313.0335249-.36951773-.01955618-.01642301-.02514367.0082115-.07682787.07527213-.12432146.08962589-.05865634.19469601-.08790409.30108852-.08381221.10675057.00178663.2102166.03796594.29561418.1033684.06432346.04749359.08485222.09917779.06842921.12432145z"/>
      <path fill="rgb(38,50,56)" fill-rule="evenodd" d="M61.42631855 13.9556184l-.0082115.00698435c-.22448795.18359038-.37143792.44806772-.41057526.73894438v.02933427c-.05611195.41906109-.04516328.83812217-.10538098 1.25718326-.0602177.41906108-.1998133.83812216-.49953323 1.11749622-.12454117.1173371-.34214605.19835558-.44342128.06006542-.03482084-.05686197-.05243503-.12294416-.05063762-.18997436-.07664071-1.00015912-.34351463-1.88856862-.34214604-2.93342759-.00117156-.28440878.1323959-.55186152.35856905-.71799132.21486772-.15784634.47763589-.3198833.71576953-.20533993.23813365.11454336.54743368.57131994.73356113.76548491"/>
      <path fill="rgb(235,153,110)" fill-rule="evenodd" d="M60.36019147 16.20877016c-.02463452-.01117496-.9785377-.2961365-.94842885.69843514.03010885.99457164 1.00317221.7571037 1.00317221.72776942 0-.02933428-.05474336-1.42620456-.05474336-1.42620456z"/>
      <path fill="rgb(209,115,74)" fill-rule="evenodd" d="M60.1056348 17.2689947s-.016423.01257184-.04379469.02654054c-.03988907.01926616-.08559536.02177428-.12727833.00698435-.1304511-.0791891-.20931915-.22365922-.20665621-.37855185-.00447912-.08483172.00905966-.16964931.03968894-.2486429.01618475-.06479667.06285978-.117148.12454116-.13968703.0398662-.0114029.08211005.00724226.10127523.04469984.01368584.02793741.0082115.0474936.01368584.04889046.00547434.00139688.02052877-.01676244.01094868-.05866855-.00581011-.02420219-.01988173-.04549824-.03968894-.06006542-.02758218-.02053797-.06221574-.02861782-.0958009-.02234992-.07802588.02194842-.14015763.08221973-.16559868.16064008-.03852723.08762134-.055443.1835402-.04926903.27937406.01231725.19975245.11906682.38413932.26139958.41906108.0532182.01381498.10970435.0019754.15328143-.03212802.02326593-.02234992.02737168-.04469985.02326593-.04609672z"/>
      <path fill="rgb(38,50,56)" fill-rule="evenodd" d="M60.59832511 13.26696135c-.23950223-.39671116.41741818-.96803111.89779123-1.11749623s1.11402753.08520909 1.59166342.24724604c.3024571.10197153.60354562.2444523.92105716.2304836.21245627-.02174229.42051528-.07589197.61723147-.16064009.19717055-.08422848.4089658-.12698808.6227058-.12571832.2176569.00590317.41442645.13370842.51185049.33245513.06702504.1669693-.00079652.38591056-.14632355.47227625.11248804-.02666765.23175194-.01306074.33699333.04054276.13675167.06965215.23486547.19921745.26643734.3518437.01210513.15577757-.0460638.30868458-.15798936.41530908-.06526778.0621747-.14465798.10465352-.22953347.12469163.08675866.04638308.15628958.1501426.14665338.2534216-.0390375.17636326-.16575744.31895438-.33393454.3757581-.41057526.18299001-.87863105.12432146-1.30015498-.01955618-.42152393-.14387764-.81020184-.37017062-1.23172577-.52522322-.42152393-.1550526-1.11402753-.4330298-1.5328143-.27937406-.30793144.11035275-.52279916.4889046-.69660935.40509238-.16649374-.09048646-.28083758-.25646957-.30793144-.44699849-.02368198-.1883917-.01721132-.37945981.01916018-.56573246"/>
      <path fill="rgb(69,90,100)" fill-rule="evenodd" d="M65.63334635 13.14543363c-.0082115 0-.05063762.07403413-.1560186.18997436-.1509647.16292236-.33900788.28527753-.54743367.35620192-.30286142.11141345-.63642293.09737405-.92926867-.03911237-.33119737-.15086199-.6144943-.45398284-.94021734-.74034125-.30281174-.28859265-.68485213-.47576214-1.09486735-.53639818-.34338907-.04216262-.68666851.0794379-.93063725.32966138-.15652086.17445191-.23658705.40649921-.22171064.64256033.00599563.0626698.02026698.12422422.04242611.18299.0177916.03911238.02874027.0572717.03147744.05587482-.01760576-.07956193-.02949841-.16032936-.03558319-.24165856-.00038707-.22055572.08357994-.43255653.2340279-.59087613.2336943-.22523423.5546609-.33049767.87315671-.2863584.39084213.06334436.75410103.24483518 1.04286115.52103261.31888012.27937406.61175714.59087613.96622044.7473256.53638478.23342425 1.1592362.08144013 1.53418288-.37436123.03900684-.0479052.07295313-.09987703.10127523-.1550526.02326593-.0377155.03284602-.0614623.03010885-.0614623z"/>
      <path fill="rgb(69,90,100)" fill-rule="evenodd" d="M60.11247773 16.16546718s.04105752-.0279374.0780093-.10616214c.04865748-.11319857.06570847-.23792294.04926903-.36039253-.02189735-.32128017-.29971994-.66491026-.33530313-1.10632127-.02420985-.20451605.01352111-.41169436.10811815-.59366987.08319639-.14438346.21064789-.25679713.36267481-.3198833.10251713-.04325763.21426839-.05865826.32435445-.04469984.0780093.01257183.12043541.03212802.12454117.0237468.00410575-.00838123-.0342146-.03492176-.11632966-.0614623-.11821347-.03005957-.24249864-.02374117-.35720047.01815932-.17077627.06131445-.31572657.18065767-.41057526.3380426-.10919872.19661472-.1538052.42376723-.12727833.64814782.02490859.21908094.08891953.43165291.18886462.62719475.07908844.15086426.13756818.31206995.17381019.4791265.02493035.1557079.00297812.31547198-.06295487.45817346z"/>
      <path fill="rgb(38,50,56)" fill-rule="evenodd" d="M65.82905389 67.64991517s2.96435335-14.84733423 2.96709052-15.1448676l-5.29642081-2.8579966-2.05287629 17.4245599 4.38220658.5783043z"/>
      <path fill="rgb(38,50,56)" fill-rule="evenodd" d="M59.15720596 68.14859786l4.09617248-25.7345412v-5.55116251l-5.93144388.43302979c-.0684292.2165149-1.5670289 30.8861988-1.5670289 30.8861988l.57754254-.03352488h2.82475776"/>
      <path fill="rgb(38,50,56)" fill-rule="evenodd" d="M66.47365704 36.4703736l2.32248737 16.03467397-5.19103983-1.28512066-2.11719974-14.2285207 4.9857522-.5210326z"/>
      <path fill="none" d="M67.63284785 42.8680395l-.26276816-2.18191139"/>
      <path fill="rgb(232,80,91)" fill-rule="evenodd" d="M67.37007969 43.37650028s.90189698-.79062858.99222353-1.3870922c.09032656-.5964636-1.08391867-10.19715305-1.08391867-10.19715305l-.59777158-7.93442715c.00096349-.0945779-.00308478-1.01142348-.16452982-1.07259243-.54743367-.20953054-1.67240988-.592273-1.67240988-.592273l-.64323457-.58947926s1.15508506 5.0385111 1.37953287 6.41722207l1.79010812 15.35579502z"/>
      <path fill="rgb(232,80,91)" fill-rule="evenodd" d="M59.95235338 21.05591004l-.97169478.65932277-3.64317111 1.46392006 1.6190351 6.23143833-.2162363 3.61370342-.2080248 2.2978516s-1.08528727 5.6880558-2.0432962 9.14530975c0 0 1.06886425 2.06876488 1.9474953 2.35652016l.36541198.22210238 1.30152357-9.734789 1.11813328-1.5365573c.10811815-.14806826.2080248-.30032712.3024571-.4567766.27371684-.45677657.9005284-1.4946512 1.40006163-2.29645474.65965758-1.05603393 1.50544261-3.46004768 1.2549917-4.48535047-.2504509-1.02530279-2.22668647-7.48024036-2.22668647-7.48024036z"/>
      <path fill="rgb(38,50,56)" fill-rule="evenodd" d="M57.47658458 42.53698124c.85354178-.7045348 1.56234556-1.57419798 2.0857223-2.55906636"/>
      <path fill="rgb(235,235,235)" fill-rule="evenodd" d="M59.95235338 21.05591004l.87726246 5.7439306c-.0236928.73501074-.14288861 1.46355773-.3544633 2.1665458l-1.56566032 5.16842005s-1.23172577 2.81748736-.80609608 3.1778799c.42562968.36039252 3.73623484 0 3.73623484 0l4.48074463-.66491026c.20797889-.03036614.35572135-.22240026.33530313-.43582353l-.66513192-7.01508256c-.2244478-.48471399-.31614295-1.47509502-.41057525-1.8285032l-1.37953287-5.7676774-.28192834-.03771549-.61312572.43023605-.32298587.02654053-2.71116528-1.3395986-.31888011.3757581z"/>
      <path fill="rgb(224,224,224)" fill-rule="evenodd" d="M59.13530862 33.38329028c.72398103-2.3034391 1.6614612-6.04705145 1.6614612-6.04705145.29150843 1.9556184-.02737168 3.96012725-.74040404 5.80259915-.58301687 1.5044293-1.28783773 2.6414817-1.77231653 4.18083275l-.01505443.06425604s-.27371683.0139687-.25455666-.39671116c.01916018-.41067987.41057526-1.63852885.67197484-2.31880467.26139958-.68027583.44889562-1.28512066.44889562-1.28512066z"/>
      <path fill="rgb(232,80,91)" fill-rule="evenodd" d="M63.46140324 22.48351147h-.60901996l-.1820217.84929713.53237925.65932277.536485-.05587481.17517878-.60903544-.14370134-.34083635-.30930003-.5028733z"/>
      <path fill="rgb(232,80,91)" fill-rule="evenodd" d="M67.01287921 27.45078219c.19160179.03911237 2.30743295 1.49185746 3.07794585 1.33540799.7705129-.15644947 1.39048153-.89679072 1.47259658-.99596851.43657836-.52941384.16286152-1.62456014.03832036-2.03803374-.0312356-.10088974-.07347003-.19788124-.12590974-.28915215l-3.26681047-5.72716816-1.92286078 1.19013348 1.99813291 3.7226593-1.2714147 2.80212179z"/>
      <path fill="rgb(232,80,91)" fill-rule="evenodd" d="M51.25636944 34.37786192c-.25636944-.6835724-.2130118-1.4465684.11906682-2.09530542.44342128-.89539386 1.14550497-2.34255147 1.29331206-2.8160905.21897347-.69843513 2.26637542-6.11829183 2.66737059-6.28591626l1.77915944 6.1294668-2.06656212 4.44344436 2.42239401 4.6585624-2.02413602 2.21962687s-3.81971847-5.43661914-4.13312425-6.10991061c-.0177916-.04889046-.03832036-.09778092-.05748053-.14387764z"/>
      <path fill="rgb(235,153,110)" fill-rule="evenodd" d="M57.56691113 42.04388603c.38278695-.3646284.72224495-.77392715 1.01138372-1.21946776-.0054068-.0114773-.0054068-.02484132 0-.03631863.0099532-.0137753.02460184-.0232445.04105753-.02654053.11591624-.18297601.22191261-.37230347.31751153-.56712934-.3380403-.22489611-.78009299-.55874811-.29971994-.6341791.59259696-.08660596 1.01548947-.37994872 1.07570717-.5405888.0602177-.16064009-.13685841-.30451773-.29287701-.2025462-.17957251.09402498-.37123555.1617411-.56933103.20114933-.15817189.03807858-.32153006.04846996-.48311021.03073114-.18749604-.02095305-.95800894-.3617894-1.09486736-.38693307l-1.44111915 1.54773228s1.10718461 1.19711783 1.73536475 1.83409068z"/>
      <path fill="rgb(38,50,56)" fill-rule="evenodd" d="M66.99919337 27.62120036c-.02294773-.05570524-.03992565-.11378021-.05063761-.17321191-.02737169-.11174962-.06295488-.27937406-.10264382-.47772964-.10261363-.52863411-.17708258-1.06255589-.22307922-1.59941647-.04858312-.53490261-.06959705-1.0720412-.06295487-1.60919457 0-.2067368.01094867-.37436123.01916017-.4889046.00099114-.06007404.007405-.119927.01916018-.17879939.00966736.05905731.01242386.11907803.0082115.1787994v.4889046c0 .41906108.02463452.9778092.0780093 1.60779769.05337479.6299885.13685843 1.19013348.20255047 1.5980196.03147743.19137123.05884912.35201131.08074646.48052338.01562123.05664257.0261572.1146192.03147744.17321191z"/>
      <path fill="rgb(38,50,56)" fill-rule="evenodd" d="M68.67981476 27.95225862s-.01642301 0-.04653187-.01117496c-.04226333-.01573856-.0830333-.03537597-.12180399-.05866855-.14180315-.090844-.26084236-.2142569-.34762038-.36039254-.1196788-.21744137-.20381062-.4533498-.24908233-.69843514-.06980168-.29624763-.12416516-.59606432-.16286152-.89818759-.05748053-.64535407-.10538098-1.22505524-.13685841-1.64830693-.01368585-.19975245-.02463452-.36737689-.03284602-.4986827-.00688664-.06126132-.00688664-.12312554 0-.18438687.01556419.0594399.02564442.120236.03010885.18159314.01505442.1313058.03284602.29893024.05611195.49728582.0437947.41906108.09990665 1.00434973.15738718 1.64411632.03832036.31708955.09716948.61881354.1560186.89120324.03936335.24372224.11651462.47948823.22855356.69843514.07927126.14320296.18807298.26712192.31888011.36318627.09169515.05308108.15328143.08241535.15054427.08241535z"/>
      <g opacity=".3">
        <path fill="rgb(0,0,0)" fill-rule="evenodd" d="M67.57126156 23.59961082c-.16647725.64130555-.28181504 1.2953145-.34488321 1.9556184-.05791592.3950489-.03696736.79797193.06158628 1.184546.11632966.37994871.39141508.73056315.76914432.83812217 0 0-.25592524-1.94304657-.45573854-3.89447435"/>
      </g>
      <g opacity=".3">
        <path fill="rgb(0,0,0)" fill-rule="evenodd" d="M56.36529422 36.15747466s.6404974 1.34099547.9949607 2.04222435c.73903546-3.1164176-.1984447-6.39626902.10811815-9.58811762l-.53511642 1.09933692-.15054426 2.54370078-.11496107 1.49185746s-.10948673 1.60919457-.3024571 2.4109981z"/>
      </g>
      <path fill="rgb(38,50,56)" fill-rule="evenodd" d="M56.88261904 23.23502768c.04070168.0550557.07686473.11345836.10811815.17460878.0415126.06867683.07942995.13955099.11359249.21232429.04105752.08520908.09169514.1787994.13685842.28915215.11217998.25433296.20862627.5155946.28877126.78224735.19650974.65437828.29434222 1.3354613.29013985 2.01987443-.00111784.28026546-.01940129.56018548-.05474337.83812217-.01231726.11873397-.0342146.22349925-.04926903.31708955-.01505442.09359031-.03284602.17181505-.04926903.23607108-.01326704.06790264-.03156746.13467881-.05474337.19975245.00181373-.0692562.01099143-.13810653.02737169-.20533993.01231725-.06425603.0260031-.13968703.03695177-.23746795.01094867-.09778092.03010885-.19835558.03832036-.31569268.02877969-.27510957.04203122-.55168106.03968894-.82834408-.00429292-.33838866-.02943326-.67616677-.07527213-1.01133408-.04987409-.33396034-.12073037-.66430289-.21213055-.98898416-.07650636-.265421-.16789602-.52613443-.27371684-.78085049-.04105752-.11035275-.08758939-.2067368-.12590974-.29194589-.03832036-.08520909-.07253497-.15784634-.10264382-.2165149-.03303386-.06158572-.06051847-.12610685-.08211505-.1927681z"/>
      <path fill="rgb(38,50,56)" fill-rule="evenodd" d="M55.02955605 33.78838266c-.0095801.00698435-.09990665-.14806825-.27371684-.37017063-.22956648-.29123376-.50249935-.54388283-.80883326-.74872247-.1635551-.1137169-.36184434-.16332168-.55838235-.13968702-.15920295.03032057-.31004001.09562019-.44205269.19137122-.22992214.16343383-.35720047.29054902-.36678056.27937406.02297237-.03535766.05060332-.06731996.08211505-.09498718.07957193-.08193583.16512643-.15758442.25592524-.22629298.13512608-.10755628.29310033-.18123833.46121287-.21511803.2116284-.0314962.42717907.01827885.60491422.13968703.31206233.20984305.58502158.47472667.80609608.78224736.06839623.09147602.13058378.1876187.18612745.28775528.023954.03485893.04199694.07357947.05337479.11454336z"/>
      <path fill="rgb(38,50,56)" fill-rule="evenodd" d="M54.58202902 32.320272c.27211645.42285305.42808358.912485.45163278 1.41782333-.02189735 0-.07527213-.32686765-.1998133-.71799133-.12454115-.39112367-.27097966-.69005391-.25181948-.699832z"/>
      <path fill="rgb(38,50,56)" fill-rule="evenodd" d="M56.3228681 36.07226557c.03970263.05613603.07407326.11600589.10264382.1787994l.260031.50147643c.21760488.42604543.51595624 1.0197153.84441644 1.68602243l.01231726.02234992-.0177916.01955619-.13685841.13968703c-.536485.57271681-1.02643815 1.08676507-1.38363862 1.4569357l-.42562968.44699849c-.04929367.05605082-.10384133.10704636-.16286152.15225886.043729-.06077363.09175673-.11819897.14370134-.17181504l.41057526-.4511891c.34762038-.37994872.8307306-.89958447 1.36858418-1.47230128l.12357495-.126129c-.32299545-.65547021-.60805101-1.24304414-.80786704-1.66884932l-.23950223-.51125452c-.03650425-.06454518-.06719475-.13233949-.09169514-.20254619z"/>
      <path fill="rgb(38,50,56)" fill-rule="evenodd" d="M59.01762573 31.52544678c-.0123291.53079223-.02874756.96243286-.02874756 1.26974487v.11923218c-.00387573.08895874-.01083374.1659851-.01370239.22583008.0052185.02737426.00900269.05502319.01135254.08279419-.00091553-.02761841-.00015259-.05526734.00231934-.0827942v-.22579955c.00167846-.03775025.0027771-.07763672.0027771-.1192627.01229858-.3059082.03146362-.73336792.05200195-1.26834106.02053833-.53500367.03833008-1.17337037.0697937-1.880188.02120972-.76647948.12539673-1.52822875.31066895-2.27133178.10021972-.37850952.24258422-.74407959.42425537-1.08953857l.0232849-.04611206-.04928588-.00698853c-.1539917-.02688599-.2939148-.10794067-.39550781-.22906494-.10177613-.11672974-.17575073-.25582886-.21624756-.40649414-.06280518-.29058838-.08764649-.5883789-.07391358-.88562012-.00546264-.56991577-.00958251-1.08538818-.01504516-1.50305176-.00546265-.41766357-.01504517-.75570678-.01504517-.99456787-.00683593-.11172485-.00683593-.20114136-.00683593-.26818847.00299072-.03063965.00299072-.06155396 0-.0921936-.00244141.03067016-.00244141.06152343 0 .0921936v2.7658081c-.01489258.3036499.00949096.60800171.07250976.90518189.04156494.16046142.11938477.30874633.22720337.43301391.10153198.12176514.23809814.20703125.38961792.24414063-.1736145.33789062-.3111267.69390869-.41015625 1.06192016-.18560791.74813843-.28845215 1.51516724-.30654907 2.28668213-.02874756.70962525-.04244995 1.35217285-.05474854 1.8829956zm-.02874756 1.73492431c-.00112915-.01242065-.00189209-.02487182-.00231933-.037323.00106811.01242066.00183105.02487183.00231933.037323z"/>
      <path fill="rgb(38,50,56)" fill-rule="evenodd" d="M64.85462195 22.27817154c.01237884.02476092.02290051.05044378.03147743.07682786l.07937788.22489612.28192835.83812217c.11769824.35899566.2586624.7850411.41057525 1.25718325.07527213.24165856.16833586.48611086.23813365.75989743.03752248.14165382.04360036.2900699.0177916.43442666-.02532428.1427797-.10184183.27030837-.21389466.35816173.10938546.16615632.22416178.34133084.3315929.53024777.17105386.28063403.30020441.58570352.38320357.90517194.06374865.30034108.0849494.60846273.06295487.91495004-.0342146.58109803-.07116637 1.10213065-.10127523 1.5365573-.03010885.43442667-.05611195.78364424-.07527213 1.03787463-.00958009.11594023-.0177916.20953054-.02326593.27937405-.00123993.0329885-.00582606.06575767-.01368584.09778092-.00329555-.03250656-.00329555-.06527435 0-.09778092 0-.07263725 0-.16622756.01094867-.27937405.01231726-.25283352.03147744-.6062417.05337479-1.03787462.02189734-.43163292.0520062-.96244363.08485222-1.53655731.01972403-.3000659-.00192834-.60147279-.06432346-.89539385-.08252563-.31213067-.2098108-.61009148-.37772924-.8842189-.1122239-.1927681-.2326593-.37715497-.34762038-.55176375l-.02052876-.03212802.03147743-.01955618c.11232381-.07713518.18894126-.19771582.21213055-.333852.02512995-.13398221.01998133-.27205027-.01505442-.40369551-.06569204-.26261162-.15875577-.51544514-.23129073-.75570683l-.40236375-1.26556447-.26139958-.84510652c-.02737169-.09498718-.05063762-.17041818-.06706063-.22908673-.00865766-.02712722-.01372006-.05531466-.01505442-.08381221z"/>
      <path fill="rgb(69,90,100)" fill-rule="evenodd" d="M59.5267237 39.63288792c-.0148849.0410708-.03563811.07966936-.0615863.11454336-.04516327.06984352-.11085531.17181505-.19433895.29473963-.16696727.24584917-.41057526.57970117-.6842921.93869683-.27371683.35899566-.53922216.67608522-.73356112.90098133-.09716948.11174963-.17791594.20114932-.23539648.26121475-.0272402.03365115-.05850508.0636851-.09306373.0893997.08738068-.13511512.18435416-.26350606.29013985-.38413933.18475887-.23188047.43931553-.55874812.71576953-.9121563.27645401-.35340818.52143058-.68726018.69934653-.92472812.09077458-.13267883.189982-.25913449.29698276-.37855185z"/>
      <path fill="rgb(69,90,100)" fill-rule="evenodd" d="M61.67128174 37.82952393v.07263183c-.00820923.05447388-.01779175.12991333-.03146362.22909546-.02600098.20394898-.06295777.50146484-.11224366.8814087-.09851074.76968383-.24221801 1.87600707-.4187622 3.24353027-.36270142 2.7364807-.89370728 6.51361084-1.45755005 10.68746948-.28192139 2.08831787-.5392151 4.0760498-.75546265 5.89199829-.05612183.45257568-.09716797.89678955-.16149902 1.32421875-.06433106.42745972-.12454224.84231567-.18338013 1.2432251-.116333.80319214-.22445679 1.5519104-.32437134 2.23498535-.19433594 1.3675537-.34487915 2.47387695-.44067383 3.24075317-.0479126.38272095-.0821228.68026734-.09991455.8828125-.01504516.10198975-.01504516.1788025-.01504516.23187256-.00216675.01757813-.00238037.03530884-.00064087.05291748-.00054932-.01531982-.0003357-.03063965.00064087-.04592895.00274658-.05166626.0109558-.12850953.02191162-.23046875.0232544-.20117188.06158447-.49868775.11358642-.88143921.10400391-.76409912.26275635-1.87039185.46392823-3.23513794l.33120727-2.23501587.1875-1.24459839c.06295777-.428833.10812378-.87023926.1642456-1.32421875.22171021-1.81173706.48034669-3.80230713.7609253-5.8892212.56521607-4.17523193 1.09075928-7.95239257 1.43701172-10.69165038.1751709-1.37033081.30929565-2.47943115.3968811-3.24630738.04241944-.38134765.07662964-.67889404.09854126-.8842163.01095581-.09918213.02462769-.1760254.02462769-.22909546v-.00698853c.00820923-.05447388 0-.07263183 0-.07263183zm-4.00036621 30.22491455c.00109863.00476074.00958252.00476074.00958252.00476074s-.00958252.01535034-.00958252 0v-.00476074z"/>
      <path fill="rgb(69,90,100)" fill-rule="evenodd" d="M64.976427 66.36059082c-.05612182.36740112-.10403442.65515137-.13687134.85351563-.01318359.08322143-.02429199.15039062-.03234863.20144653-.00161743.0086975-.00317383.01699829-.00457764.0248413-.00958251.05307008-.00820922.07263184-.00820922.07263184.0019226-.02575683.00512695-.0513916.00958252-.07684326l.00323486-.02062988c.00946045-.05020142.02264404-.1149292.03781128-.19586182.0355835-.19836426.08895874-.4847412.15600586-.85211181.13275146-.74313355.32434082-1.81314087.5611267-3.13458252.4680481-2.64984131 1.11264039-6.30685425 1.8256836-10.34661866.05386353-.25311279.06912231-.51318359.04516602-.77105713-.03283692-.25424194-.07254029-.50146484-.10812378-.74871826-.07571411-.49450683-.15008545-.9810791-.2230835-1.45974731-.14779663-.95544434-.29559326-1.87738037-.44067383-2.75460816-.28604126-1.75448608-.56796264-3.33013916-.82116699-4.6515808-.25317383-1.32144166-.47763062-2.38586426-.65005493-3.11782838-.0821228-.3631897-.15740967-.64535522-.20529175-.83810424l-.05749512-.21792603c-.01229858-.04888916-.0205078-.07263183-.0205078-.07263183s.00134276.02374267.01367187.07543945c.0123291.05166626.02874755.1242981.05062866.21929931.04379272.18719483.11361694.47073365.19161987.83813477.16421509.7333374.38183594 1.79916382.62817383 3.12060547.24633789 1.32144165.52279663 2.89709473.80883789 4.6529541.14370728.8772583.28875732 1.79919434.43658447 2.75463867.07296753.47866822.14642334.96524048.22033692 1.4597168.03695678.2458496.07662964.49731445.10812378.74453735.02435302.2508545.009552.50402832-.04379273.75012207L65.5156421 63.2204541c-.22717285 1.32421875-.4105835 2.39562988-.53921509 3.14013672z"/>
      <path fill="rgb(69,90,100)" fill-rule="evenodd" d="M63.25337844 42.23246351c.02052877 0-.22171064 1.66506938-.53922217 3.71288121-.31751153 2.04781184-.59259695 3.7045-.61175713 3.70170625-.01916018-.00279374.22307922-1.66506937.54059075-3.7128812.31751154-2.04781184.59122837-3.70589687.61038855-3.70170626z"/>
      <path fill="rgb(69,90,100)" fill-rule="evenodd" d="M59.206475 68.10110427c-.04403883.01550673-.09027312.02352901-.13685843.0237468-.0862208.01117496-.21213054.02374679-.36814914.03631862-.31066861.0237468-.74177263.04749359-1.21803993.05587481-.4762673.00838122-.9087399 0-1.21940851-.01536557-.1560186-.00698435-.28329693-.01536557-.36951774-.02234993-.04627948-.0001222-.09232533-.00670186-.13685841-.01955618.16800829-.01323847.33662823-.01650334.50500756-.0097781h1.21803993c.47489871 0 .90600273-.02374679 1.21667135-.03492175.16928806-.01486335.33928738-.01952767.50911331-.0139687z"/>
      <path fill="rgb(69,90,100)" fill-rule="evenodd" d="M65.82905389 67.64991517c-.05851787.0037059-.11725715.00089559-.17517878-.00838122l-.47079296-.0516842c-.39688941-.04609672-.94432309-.11454337-1.5492373-.19416497-.60491421-.07962161-1.15234789-.15784635-1.54786872-.2165149l-.4680558-.07263725c-.05753185-.00607655-.11436014-.01777067-.16970443-.03492176.05800201-.0047694.11635507-.00242456.17381019.00698435.11085532.0097781.27371684.0279374.47079296.05028733.39688942.04609672.94569168.11454336 1.55060589.19416497.6049142.0796216 1.1509793.16064008 1.54786872.2165149l.46805579.07403412c.05748912.00708432.1142693.01923591.16970444.03631863z"/>
      <path fill="rgb(38,50,56)" fill-rule="evenodd" d="M60.05089144 21.98482878c.05357596.0273549.10405756.060613.15054426.09917779l.41057526.27937405c.34077746.23746795.82115051.55874812 1.36858419.87723454.1908778.11039885.3817556.21476042.55283.30971548.11047212-.44374658.20770455-.8257068.27926918-1.09894719.03695178-.12990894.06569205-.23886482.09032656-.32826452.00922152-.04059305.02299769-.07996523.04105753-.1173371-.00170115.04149683-.00766408.08269751-.0177916.12292459-.02052876.0893997-.0437947.20114932-.07116638.333852-.06295487.27937405-.1560186.68446643-.27371683 1.14822736l-.0095801.04330298-.03832035-.02095305c-.18749603-.09778092-.38867791-.20953054-.59533412-.32966139-.46906444-.27402264-.92319079-.57386085-1.36037269-.89818759-.16696727-.12432145-.29971994-.2304836-.3900465-.30451772-.04868053-.03471921-.09445694-.07349912-.13685841-.11594023z"/>
      <path fill="rgb(38,50,56)" fill-rule="evenodd" d="M64.5726936 23.0129253c-.19081485.15464053-.39254416.2947075-.60354563.41906109l-.03147743.01955618-.01642301-.03212801c-.05748054-.11594024-.12043541-.23886482-.18475887-.36737689-.13685842-.27937405-.27371684-.5447794-.35309472-.73475377-.05343637-.0999321-.09655088-.2052631-.12864691-.31429581.06830193.0899794.12659677.18742786.17381019.29054902.09853806.18438688.22992214.44001414.37088631.72497567.05864247.11802297.11354733.22994162.16471185.33575454.19436906-.12882776.3977612-.24291714.60853822-.34134202z"/>
      <path fill="rgb(38,50,56)" fill-rule="evenodd" d="M63.67627096 22.87603202c-.03654952.03597339-.07642434.06825187-.11906683.09638405-.07664071.05727168-.18339028.13968702-.3024571.21651489-.11906683.07682786-.22718498.15644947-.30656286.20813367-.04240322.03192539-.08833825.0586495-.13685842.0796216.03768198-.03521124.07794425-.067433.1204354-.09638404.07664072-.05587481.18339029-.13968703.30108853-.21511803.11769824-.075431.22718498-.15784634.30656286-.20953054.04351898-.03013671.0892776-.0567582.13685842-.0796216z"/>
      <path fill="rgb(38,50,56)" fill-rule="evenodd" d="M63.2656957 23.16518416c-.09500216-.07839647-.18378074-.16433914-.26550533-.25702413-.08918928-.08636371-.17156017-.17977853-.24634516-.27937405.09459248.07887257.1833366.16478188.26550534.25702413.08918928.08636371.17156016.17977853.24634515.27937405z"/>
      <path fill="rgb(38,50,56)" fill-rule="evenodd" d="M60.68728309 35.55682044c.05837922.7093418.38952823 1.36624396.92105716 1.82710633-.09380073-.04475382-.17870572-.106789-.25045091-.18299001-.18416103-.17265618-.33664148-.37748484-.4502642-.60484483-.11443578-.22664064-.18901432-.47202109-.22034205-.72497568-.01741092-.10401168-.01741092-.21028413 0-.31429581z"/>
      <path fill="rgb(38,50,56)" fill-rule="evenodd" d="M61.48379909 37.3964986c-.22761057-.00731873-.4505153-.0680204-.65144608-.17740253-.20954246-.08889537-.39668466-.22499006-.54743367-.39810803.01368584-.01815931.24908232.17321192.58164828.33105826.33256595.15784634.62133722.22349924.61723147.2444523z"/>
      <path fill="rgb(38,50,56)" fill-rule="evenodd" d="M64.1580126 32.9265137c.02356995.04719187.0406116.09749303.0506376.14946512.02874028.09778092.06569205.24026168.10674957.41906108.08485222.35340818.18475887.8465034.26413675 1.39687028.07937789.5503669.12454116 1.05044645.14506993 1.41363273.00958009.18159313.01505442.32966138.016423.43023604.00410525.05316701.00180713.10664722-.00684291.15924322-.01272671-.05120716-.02006733-.10365348-.02189735-.15644947-.00958009-.1173371-.02326593-.25981788-.03832036-.42883918-.03284602-.3617894-.08485222-.8604721-.1642301-1.40804525-.07937788-.54757315-.17107302-1.03927149-.2422394-1.39687028-.0342146-.1648307-.06295488-.30591459-.08485222-.41906108-.01411166-.05195357-.02237649-.10537934-.02463452-.15924321z"/>
      <path fill="rgb(224,224,224)" fill-rule="evenodd" d="M63.24653552 24.13461214c-.17791594 1.45134822-.30930002 4.60967193-.35856906 6.07498886-.04105752 1.22365836-.03695177 2.4487136-.03284602 3.67376884 0 .39391742 0 .80180354.1655987 1.16219607.28603409.64675094.9853806.97082485 1.6272466 1.24042081l-1.40143022-12.15137458z"/>
      <path fill="rgb(232,80,91)" fill-rule="evenodd" d="M64.84504186 36.07645618l.7349297-1.83828129-1.84074573-10.29912459-.536485.05447794s.07527213 10.70561384.05063761 10.8019979l1.59166342 1.28093004z"/>
      <path fill="rgb(38,50,56)" fill-rule="evenodd" d="M63.72006565 23.93765343c-.16759682.0431014-.34130137.05586661-.51321907.0377155.0846566-.0140368.1701765-.02197202.25592524-.0237468.08524758-.0118133.17129947-.01648513.25729383-.0139687z"/>
    </g>
  </g>
</svg>
